SplineFontDB: 3.0
FontName: bitshift
FullName: Bitshift
FamilyName: bitshift
Weight: Regular
Copyright: \\uFFFD 2000 GrilledCheese.com - TeA Curran
Version: 2015-04-15
ItalicAngle: 0
UnderlinePosition: -113
UnderlineWidth: 20
Ascent: 800
Descent: 200
InvalidEm: 0
sfntRevision: 0x00010000
LayerCount: 3
Layer: 0 0 "Back" 1
Layer: 1 0 "Fore" 0
Layer: 2 0 "Perspective" 1
PreferredKerning: 4
XUID: [1021 270 -1463357204 9343467]
UniqueID: 4015600
FSType: 4
OS2Version: 3
OS2_WeightWidthSlopeOnly: 0
OS2_UseTypoMetrics: 1
CreationTime: 1425785726
ModificationTime: 1428988790
PfmFamily: 81
TTFWeight: 100
TTFWidth: 5
LineGap: 0
VLineGap: 0
Panose: 0 0 0 0 0 0 0 0 0 0
OS2TypoAscent: 800
OS2TypoAOffset: 0
OS2TypoDescent: -200
OS2TypoDOffset: 0
OS2TypoLinegap: 0
OS2WinAscent: 1000
OS2WinAOffset: 0
OS2WinDescent: 0
OS2WinDOffset: 0
HheadAscent: 800
HheadAOffset: 0
HheadDescent: -200
HheadDOffset: 0
OS2SubXSize: 650
OS2SubYSize: 600
OS2SubXOff: 0
OS2SubYOff: 75
OS2SupXSize: 650
OS2SupYSize: 600
OS2SupXOff: 0
OS2SupYOff: 350
OS2StrikeYSize: 20
OS2StrikeYPos: 300
OS2CapHeight: 0
OS2XHeight: 0
OS2Vendor: 'pyrs'
OS2CodePages: 00000001.00000000
OS2UnicodeRanges: 00000001.00000000.00000000.00000000
Lookup: 258 0 0 "'kern' Horizontal Kerning in Latin lookup 0" { "'kern' Horizontal Kerning in Latin lookup 0 subtable"  } ['kern' ('latn' <'dflt' > ) ]
MarkAttachClasses: 1
DEI: 91125

StartChar: one
Encoding: 49 49 0
GlifName: one
Width: 747
Flags: W
HStem: 455 20<460 684>
LayerCount: 3
Back
Fore
SplineSet
460 475 m 1
 739 475 l 1
 514 311 l 1
 600 46 l 1
 374 210 l 1
 149 46 l 1
 235 311 l 1
 9 475 l 1
 288 475 l 1
 374 740 l 1
 460 475 l 1
375 359 m 1
 684 455 l 1
 443 455 l 1
 375 359 l 1
303 455 m 1
 374 359 l 1
 374 685 l 1
 303 455 l 1
375 357 m 5
 567 91 l 1
 489 319 l 1
 375 357 l 5
259 321 m 1
 373 358 l 1
 63 459 l 1
 259 321 l 1
181 93 m 1
 374 238 l 1
 374 357 l 1
 181 93 l 1
EndSplineSet
Validated: 1
Layer: 2
EndChar

StartChar: three
Encoding: 51 51 1
GlifName: three
Width: 747
Flags: MW
HStem: 307 134<326 415 333 415>
VStem: 308 132<332 416 325 423>
LayerCount: 3
Back
Fore
SplineSet
333 441 m 2
 415 441 l 2
 428 441 440 430 440 416 c 2
 440 332 l 2
 440 318 428 307 415 307 c 2
 333 307 l 2
 319 307 308 318 308 332 c 2
 308 416 l 2
 308 430 319 441 333 441 c 2
EndSplineSet
Validated: 1
Layer: 2
EndChar

StartChar: four
Encoding: 52 52 2
GlifName: four
Width: 747
Flags: W
LayerCount: 3
Back
Fore
SplineSet
704 459 m 0
 705 453 700 443 693 438 c 2
 512 306 l 1
 582 93 l 2
 585 84 583 73 578 70 c 0
 573 66 562 68 555 74 c 2
 374 205 l 1
 193 74 l 2
 185 69 174 67 170 70 c 0
 165 74 163 85 166 94 c 2
 235 306 l 1
 54 437 l 2
 47 443 42 452 44 458 c 0
 45 464 56 469 65 469 c 2
 288 469 l 1
 357 681 l 2
 360 690 368 698 374 698 c 0
 380 698 388 690 390 681 c 2
 459 470 l 1
 683 470 l 2
 692 470 702 465 704 459 c 0
474 342 m 0
 474 398 429 443 373 443 c 0
 317 443 271 398 271 342 c 0
 271 286 317 240 373 240 c 0
 429 240 474 286 474 342 c 0
EndSplineSet
Validated: 1
Layer: 2
EndChar

StartChar: A
Encoding: 65 65 3
GlifName: A_
Width: 457
Flags: W
HStem: -1 21G<37 133 307 403> 223 119<226.414 289> 292 50<150 225.802> 527 70<151.348 288.023>
VStem: 19 131<-0.802399 292> 81 69<342 526.652> 226 132<223.198 291.802> 289 132<-0.802399 196.802> 289 69<197 223 342 526.652>
LayerCount: 3
Back
Fore
SplineSet
421 172 m 6xb1
 421 24 l 6
 421 10 410 -1 396 -1 c 6
 314 -1 l 6
 300 -1 289 10 289 24 c 6xb1
 289 223 l 5
 251 223 l 6xd080
 238 223 227 234 226 248 c 6
 226 267 l 6
 226 281 215 292 201 292 c 6
 150 292 l 5
 150 24 l 6
 150 10 140 -1 126 -1 c 6
 44 -1 l 6
 30 -1 19 10 19 24 c 6
 19 317 l 6xba
 19 331 30 342 44 342 c 6
 81 342 l 5
 81 497 l 6
 81 552 126 597 181 597 c 6
 258 597 l 6
 314 597 358 552 358 497 c 6
 358 197 l 5xb480
 396 197 l 6
 410 197 421 186 421 172 c 6xb1
150 342 m 5xb480
 289 342 l 5xd480
 289 502 l 6
 289 516 278 527 264 527 c 6
 175 527 l 6
 162 527 150 516 150 502 c 6
 150 342 l 5xb480
EndSplineSet
Validated: 1
Layer: 2
EndChar

StartChar: B
Encoding: 66 66 4
GlifName: B_
Width: 427
Flags: W
HStem: -1 71<179.18 315.566> 292 50<179 253.802> 463 133<46.1976 108> 527 69<179.502 291.566>
VStem: 46 133<70.127 292 463.214 526.802> 108 71<342 463> 292 70<342 526.56> 317 69<71.7046 223>
LayerCount: 3
Back
Fore
SplineSet
386 277 m 6xd1
 386 99 l 6
 385 44 341 -1 286 -1 c 6
 240 -1 l 5
 72 -1 l 6
 58 -1 46 10 46 24 c 6
 46 317 l 6xd9
 46 331 57 342 71 342 c 6
 108 342 l 5
 108 463 l 5xe4
 71 463 l 6
 57 463 46 475 46 488 c 6
 46 571 l 6
 46 585 57 596 71 596 c 6xe8
 153 596 l 6
 162 596 170 591 174 584 c 5
 189 592 201 596 219 596 c 6
 262 596 l 6
 317 596 361 552 362 497 c 6
 362 327 l 6
 362 313 350 302 337 302 c 6
 362 302 l 6xda
 376 302 386 291 386 277 c 6xd1
179 342 m 5xd4
 292 342 l 5
 292 502 l 6
 292 516 281 527 267 527 c 6
 204 527 l 6
 190 527 179 516 179 502 c 6xda
 179 342 l 5xd4
317 95 m 6xc1
 317 223 l 5xc1
 280 223 l 6
 266 223 255 234 255 248 c 6
 254 267 l 6
 254 281 243 292 229 292 c 6
 179 292 l 5
 179 95 l 6
 179 81 189 70 203 70 c 6
 292 70 l 6xca
 305 70 317 79 317 95 c 6xc1
EndSplineSet
Validated: 1
Layer: 2
EndChar

StartChar: C
Encoding: 67 67 5
GlifName: C_
Width: 414
Flags: W
HStem: -1 50<179 253.802> 527 70<179.348 316.56>
VStem: 47 132<49 341.802> 109 70<342 526.652> 254 132<49.1976 132.802> 317 69<375.416 526.652>
LayerCount: 3
Back
Fore
SplineSet
386 108 m 6xe8
 386 24 l 6
 386 10 375 -1 361 -1 c 6
 72 -1 l 6
 58 -1 47 10 47 24 c 6
 47 317 l 6xe4
 47 331 58 342 72 342 c 6
 109 342 l 5
 109 497 l 6
 109 552 154 597 209 597 c 6
 287 597 l 6
 342 597 386 552 386 497 c 6
 386 400 l 6
 386 387 375 375 361 375 c 6
 343 375 l 6
 329 375 317 387 317 400 c 6
 317 502 l 6
 317 516 306 527 292 527 c 6
 204 527 l 6
 190 527 179 516 179 502 c 6xd4
 179 49 l 5
 229 49 l 6
 243 49 254 60 254 74 c 6
 254 108 l 6
 254 122 265 133 279 133 c 6
 361 133 l 6
 375 133 386 122 386 108 c 6xe8
EndSplineSet
Validated: 1
Layer: 2
EndChar

StartChar: D
Encoding: 68 68 6
GlifName: D_
Width: 429
Flags: W
HStem: -1 70<178.577 315.652> 463 134<46.1976 109> 527 70<178.329 315.652>
VStem: 46 132<69.1976 341.616 463.214 526.802> 109 69<342 463> 317 69<69.3479 526.652>
LayerCount: 3
Back
Fore
SplineSet
386 497 m 6xb4
 386 99 l 6
 386 44 341 -1 286 -1 c 6
 209 -1 l 6
 194 -1 180 3 168 8 c 5
 164 3 160 -1 154 -1 c 6
 72 -1 l 6
 58 -1 46 10 46 24 c 6
 46 317 l 6xb4
 46 331 58 342 72 342 c 6
 109 342 l 5
 109 463 l 5xcc
 71 463 l 6
 57 463 46 475 46 488 c 6
 46 572 l 6
 46 586 57 597 71 597 c 6xd4
 153 597 l 6
 160 597 167 594 171 589 c 5
 183 594 195 597 209 597 c 6
 286 597 l 6
 341 597 386 552 386 497 c 6xb4
317 94 m 6
 317 502 l 6
 317 516 305 527 292 527 c 6
 203 527 l 6
 189 527 178 516 178 502 c 6
 178 94 l 6
 178 80 189 69 203 69 c 6
 292 69 l 6
 305 69 317 80 317 94 c 6
EndSplineSet
Validated: 1
Layer: 2
EndChar

StartChar: E
Encoding: 69 69 7
GlifName: E_
Width: 412
Flags: W
HStem: -1 50<178 253.802> 292 50<178 318.582> 443 154<254.198 385.802> 463 134<46.1976 109> 527 70<178.602 253.802>
VStem: 47 131<49 292 463.127 526.786> 109 69<342 463> 254 132<49.1976 132.802 443.198 526.786>
LayerCount: 3
Back
Fore
SplineSet
386 108 m 2xcd
 386 24 l 2
 386 10 375 -1 361 -1 c 2
 72 -1 l 2
 58 -1 47 10 47 24 c 2
 47 317 l 2xcd
 47 331 58 342 72 342 c 2
 109 342 l 1
 109 463 l 1
 71 463 l 2
 57 463 46 474 46 488 c 2
 46 572 l 2
 46 586 57 597 71 597 c 2xd3
 153 597 l 2
 160 597 166 594 170 589 c 1
 182 594 195 597 209 597 c 2xcb
 361 597 l 2
 375 597 386 586 386 572 c 2
 386 468 l 2
 386 454 375 443 361 443 c 2
 279 443 l 2xe3
 265 443 254 454 254 468 c 2
 254 502 l 2
 254 515 243 527 229 527 c 2
 203 527 l 2
 190 527 178 515 178 502 c 2xcd
 178 342 l 1xcb
 293 342 l 2
 307 342 319 330 319 316 c 0
 319 303 307 292 293 292 c 2
 178 292 l 1
 178 49 l 1
 229 49 l 2
 243 49 254 60 254 74 c 2
 254 108 l 2
 254 122 265 133 279 133 c 2
 361 133 l 2
 375 133 386 122 386 108 c 2xcd
EndSplineSet
Validated: 1
Layer: 2
EndChar

StartChar: F
Encoding: 70 70 8
GlifName: F_
Width: 403
Flags: W
HStem: -1 21G<65 178> 292 50<178 318.582> 443 154<254.198 385.802> 463 134<46.1976 109> 527 70<178.602 253.802>
VStem: 47 131<-0.802399 292 463.127 526.786> 109 69<342 463> 254 132<443.198 526.786>
LayerCount: 3
Back
Fore
SplineSet
386 572 m 6xe3
 386 468 l 6
 386 454 375 443 361 443 c 6
 279 443 l 6xe3
 265 443 254 454 254 468 c 6
 254 502 l 6
 254 515 243 527 229 527 c 6
 203 527 l 6
 190 527 178 515 178 502 c 6xcd
 178 342 l 5xcb
 293 342 l 6
 307 342 319 330 319 316 c 4
 319 303 307 292 293 292 c 6
 178 292 l 5xcd
 178 -1 l 5xcb
 72 -1 l 6
 58 -1 47 10 47 24 c 6
 47 317 l 6xcd
 47 331 58 342 72 342 c 6
 109 342 l 5
 109 463 l 5
 71 463 l 6
 57 463 46 474 46 488 c 6
 46 572 l 6
 46 586 57 597 71 597 c 6xd3
 153 597 l 6
 160 597 166 594 170 589 c 5
 182 594 195 597 209 597 c 6xcb
 361 597 l 6
 375 597 386 586 386 572 c 6xe3
EndSplineSet
Validated: 1
Layer: 2
EndChar

StartChar: G
Encoding: 71 71 9
GlifName: G_
Width: 413
Flags: W
HStem: -1 70<165 302.652> 207 134<241.198 304> 527 70<165.348 302.56>
VStem: 33 132<69 341.802> 95 70<342 526.652> 241 132<207.198 340.802> 304 69<69.3479 207 375.416 526.616>
LayerCount: 3
Back
Fore
SplineSet
373 316 m 6xe4
 373 99 l 6
 373 44 328 -1 273 -1 c 6
 58 -1 l 6
 44 -1 33 10 33 24 c 6
 33 317 l 6xf2
 33 331 44 342 58 342 c 6
 95 342 l 5
 95 497 l 6
 95 552 140 597 195 597 c 6
 273 597 l 6
 328 597 372 552 372 497 c 6
 372 400 l 6
 372 387 361 375 347 375 c 6
 329 375 l 6
 315 375 303 387 303 400 c 6
 303 502 l 6
 303 516 292 527 278 527 c 6
 190 527 l 6
 176 527 165 516 165 502 c 6xe8
 165 69 l 5
 279 69 l 6
 292 69 304 80 304 94 c 6
 304 207 l 5xf2
 266 207 l 6
 252 207 241 218 241 232 c 6
 241 316 l 6
 241 330 252 341 266 341 c 6
 348 341 l 6
 361 341 373 330 373 316 c 6xe4
EndSplineSet
Validated: 1
Layer: 2
EndChar

StartChar: H
Encoding: 72 72 10
GlifName: H_
Width: 482
Flags: W
HStem: -1 21G<61 156 331 427> 223 119<251.198 313> 292 50<174 249.802> 577 20G<124 157 332 365>
VStem: 43 131<-0.802399 292> 105 69<342 596.616> 251 132<223.198 291.616> 313 132<-0.802399 196.802> 313 70<197 223 342 596.616>
LayerCount: 3
Back
Fore
SplineSet
445 172 m 6xd1
 445 24 l 6
 445 10 434 -1 420 -1 c 6
 338 -1 l 6
 324 -1 313 10 313 24 c 6xd1
 313 223 l 5
 276 223 l 6xd080
 262 223 251 234 251 248 c 6
 250 267 l 6
 250 281 239 292 225 292 c 6
 174 292 l 5
 174 24 l 6
 174 10 163 -1 149 -1 c 6
 68 -1 l 6
 54 -1 43 10 43 24 c 6
 43 317 l 6xba
 43 331 54 342 68 342 c 6
 105 342 l 5
 105 572 l 6
 105 586 117 597 131 597 c 6
 150 597 l 6
 164 597 174 586 174 572 c 6
 174 342 l 5xb4
 313 342 l 5
 313 572 l 6
 313 586 325 597 339 597 c 6
 358 597 l 6
 372 597 383 586 383 572 c 6
 383 197 l 5xd480
 420 197 l 6
 434 197 445 186 445 172 c 6xd1
EndSplineSet
Validated: 1
Layer: 2
EndChar

StartChar: I
Encoding: 73 73 11
GlifName: I_
Width: 266
Flags: W
HStem: -1 21G<108.5 204> 463 134<90.1976 152>
VStem: 90 132<-0.802399 341.802 463.198 596.802> 152 70<342 463>
LayerCount: 3
Back
Fore
SplineSet
222 572 m 6xe0
 222 24 l 6
 222 10 211 -1 197 -1 c 6
 115 -1 l 6
 102 -1 90 10 90 24 c 6
 90 317 l 6xe0
 90 331 102 342 115 342 c 6
 152 342 l 5
 152 463 l 5xd0
 115 463 l 6
 101 463 90 474 90 488 c 6
 90 572 l 6
 90 586 101 597 115 597 c 6
 197 597 l 6
 211 597 222 586 222 572 c 6xe0
EndSplineSet
Validated: 1
Layer: 2
EndChar

StartChar: J
Encoding: 74 74 12
GlifName: J_
Width: 421
Flags: W
HStem: -1 134<40.1976 171.802> -1 50<172.198 245> 463 134<244.214 307>
VStem: 40 132<49.1976 132.802> 245 131<49 341.802 463.127 596.802> 307 69<342 463>
LayerCount: 3
Back
Fore
SplineSet
376 572 m 2x78
 376 24 l 2
 376 10 365 -1 351 -1 c 2x74
 65 -1 l 2
 51 -1 40 10 40 24 c 2
 40 108 l 2
 40 122 51 133 65 133 c 2
 147 133 l 2xb4
 161 133 172 122 172 108 c 2
 172 74 l 2
 172 60 183 49 197 49 c 2
 245 49 l 1
 245 317 l 2x78
 245 331 256 342 270 342 c 2
 307 342 l 1
 307 463 l 1x74
 269 463 l 2
 256 463 244 474 244 488 c 2
 244 572 l 2
 244 586 256 597 269 597 c 2
 351 597 l 2
 365 597 376 586 376 572 c 2x78
EndSplineSet
Validated: 1
Layer: 2
EndChar

StartChar: K
Encoding: 75 75 13
GlifName: K_
Width: 435
Flags: W
HStem: -1 21G<72 186 343 375.5> 292 50<186 260.802> 463 133<53.1976 115>
VStem: 53 133<-0.615692 292 463.214 595.37> 115 71<342 463> 299 70<342 596.5> 324 69<-0.615692 223>
LayerCount: 3
Back
Fore
SplineSet
393 277 m 6xe2
 393 24 l 6xe2
 393 10 382 -1 369 -1 c 6xe4
 350 -1 l 6
 336 -1 324 10 324 24 c 6
 324 223 l 5
 287 223 l 6
 273 223 262 234 262 248 c 6
 261 267 l 6
 261 281 250 292 236 292 c 6
 186 292 l 5xf2
 186 -1 l 5xe8
 79 -1 l 6
 65 -1 54 10 54 24 c 6
 53 317 l 6xf0
 53 331 64 342 78 342 c 6
 115 342 l 5
 115 463 l 5xe8
 78 463 l 6
 64 463 53 475 53 488 c 6
 53 571 l 6
 53 585 64 596 78 596 c 6
 160 596 l 6
 169 596 186 585 186 571 c 6xf0
 186 342 l 5
 299 342 l 5
 299 572 l 6
 299 586 312 597 326 597 c 6
 344 597 l 6
 358 597 369 586 369 572 c 6
 369 327 l 6
 369 313 357 302 344 302 c 6
 369 302 l 6xec
 383 302 393 291 393 277 c 6xe2
EndSplineSet
Validated: 1
Layer: 2
EndChar

StartChar: L
Encoding: 76 76 14
GlifName: L_
Width: 418
Flags: W
HStem: -1 50<152 262.802> 463 134<20.1976 82>
VStem: 20 132<49 341.802 463.198 596.802> 82 70<342 463> 263 132<49.1976 132.802>
LayerCount: 3
Back
Fore
SplineSet
395 108 m 6xe8
 395 24 l 6
 395 10 384 -1 370 -1 c 6
 45 -1 l 6
 32 -1 20 10 20 24 c 6
 20 317 l 6xe8
 20 331 32 342 45 342 c 6
 82 342 l 5
 82 463 l 5xd8
 45 463 l 6
 31 463 20 474 20 488 c 6
 20 572 l 6
 20 586 31 597 45 597 c 6
 127 597 l 6
 141 597 152 586 152 572 c 6
 152 49 l 5
 238 49 l 6
 252 49 263 60 263 74 c 6
 263 108 l 6
 263 122 275 133 288 133 c 6
 370 133 l 6
 384 133 395 122 395 108 c 6xe8
EndSplineSet
Validated: 1
Layer: 2
EndChar

StartChar: M
Encoding: 77 77 15
GlifName: M_
Width: 586
Flags: W
HStem: -1 21G<59 154 437 532.5> 527 70<172.977 260.656 331.036 417.652>
VStem: 41 131<-0.802399 341.802> 103 69<342 526.652> 261 69<225.214 526.802> 419 132<-0.802399 196.802> 419 69<197 526.652>
LayerCount: 3
Back
Fore
SplineSet
551 172 m 2xcc
 551 24 l 2
 551 10 539 -1 526 -1 c 2
 444 -1 l 2
 430 -1 419 10 419 24 c 2xcc
 419 502 l 2
 419 516 407 527 394 527 c 2
 355 527 l 2
 341 527 330 516 330 502 c 2
 330 250 l 2
 330 237 318 225 305 225 c 2
 286 225 l 2
 272 225 261 237 261 250 c 2
 261 502 l 2
 261 516 249 527 236 527 c 2
 197 527 l 2
 183 527 172 516 172 502 c 2xda
 172 24 l 2
 172 10 161 -1 147 -1 c 2
 66 -1 l 2
 52 -1 41 10 41 24 c 2
 41 317 l 2xe8
 41 331 52 342 66 342 c 2
 103 342 l 1
 103 497 l 2
 103 552 147 597 203 597 c 2
 230 597 l 2
 255 597 279 588 296 573 c 1
 314 587 336 597 361 597 c 2
 388 597 l 2
 443 597 488 552 488 497 c 2
 488 197 l 1xda
 526 197 l 2
 539 197 551 186 551 172 c 2xcc
EndSplineSet
Validated: 1
Layer: 2
EndChar

StartChar: N
Encoding: 78 78 16
GlifName: N_
Width: 586
Flags: W
HStem: -1 70<330.348 417.652> 527 70<172.348 259.652>
VStem: 40 132<-0.802399 341.802> 102 70<342 526.652> 260 70<69.3479 526.652> 418 70<69.3479 399>
LayerCount: 3
Back
Fore
SplineSet
550 572 m 6xdc
 550 424 l 6
 550 410 539 399 525 399 c 6
 488 399 l 5
 488 99 l 6
 488 44 443 -1 388 -1 c 6
 360 -1 l 6
 305 -1 260 44 260 99 c 6
 260 502 l 6
 260 516 249 527 235 527 c 6
 197 527 l 6
 183 527 172 516 172 502 c 6xdc
 172 24 l 6
 172 10 161 -1 147 -1 c 6
 65 -1 l 6
 52 -1 40 10 40 24 c 6
 40 317 l 6xec
 40 331 52 342 65 342 c 6
 102 342 l 5
 102 497 l 6
 102 552 147 597 202 597 c 6
 230 597 l 6
 285 597 330 552 330 497 c 6
 330 94 l 6
 330 80 341 69 355 69 c 6
 393 69 l 6
 407 69 418 80 418 94 c 6
 418 572 l 6
 418 586 430 597 443 597 c 6
 525 597 l 6
 539 597 550 586 550 572 c 6xdc
EndSplineSet
Validated: 1
Layer: 2
EndChar

StartChar: O
Encoding: 79 79 17
GlifName: O_
Width: 400
Flags: W
HStem: -1 69<218 287.023> 527 70<130.348 287.023>
VStem: 60 158<69.3479 341.802> 60 69<342 526.652> 288 69<69.3479 526.652>
LayerCount: 3
Back
Fore
SplineSet
357 497 m 6xd8
 357 99 l 6
 357 44 313 -1 257 -1 c 6
 160 -1 l 6
 105 -1 60 44 60 99 c 6xe8
 60 497 l 6
 60 552 105 597 160 597 c 6
 257 597 l 6
 313 597 357 552 357 497 c 6xd8
288 94 m 6
 288 502 l 6
 288 516 277 527 263 527 c 6
 154 527 l 6
 141 527 129 516 129 502 c 6
 129 342 l 5xd8
 193 342 l 6
 207 342 218 331 218 317 c 6
 218 68 l 5
 263 68 l 6
 277 68 288 80 288 94 c 6
EndSplineSet
Validated: 1
Layer: 2
EndChar

StartChar: P
Encoding: 80 80 18
GlifName: P_
Width: 411
Flags: W
HStem: -1 21G<57 153> 272 70<171.198 308.652> 463 134<39.1976 101> 527 70<171.589 308.652>
VStem: 39 132<-0.802399 272 463.214 526.802> 101 70<342.198 463> 309 70<342.348 526.652>
LayerCount: 3
Back
Fore
SplineSet
379 497 m 2xda
 379 372 l 2
 379 317 334 272 279 272 c 2
 171 272 l 1
 171 24 l 2
 171 10 160 -1 146 -1 c 2
 64 -1 l 2
 50 -1 39 10 39 24 c 2
 39 317 l 2xda
 39 331 50 342 64 342 c 2
 101 342 l 1
 101 463 l 1xe6
 64 463 l 2
 50 463 39 475 39 488 c 2
 39 572 l 2
 39 586 50 597 64 597 c 2xea
 146 597 l 2
 153 597 159 594 163 590 c 1
 175 594 188 597 201 597 c 2
 279 597 l 2
 334 597 379 552 379 497 c 2xda
309 367 m 2
 309 502 l 2
 309 516 298 527 284 527 c 2
 196 527 l 2
 182 527 171 516 171 502 c 2xda
 171 367 l 2xd6
 171 353 182 342 196 342 c 2
 284 342 l 2
 298 342 309 353 309 367 c 2
EndSplineSet
Validated: 1
Layer: 2
EndChar

StartChar: Q
Encoding: 81 81 19
GlifName: Q_
Width: 415
Flags: W
HStem: -1 21G<259 355> 272 70<103.348 240.802> 463 134<310 372.802> 527 70<103.348 240.505>
VStem: 33 69<342.348 526.652> 241 132<-0.802399 272 463.214 526.802> 241 69<342.198 463>
LayerCount: 3
Back
Fore
SplineSet
373 317 m 2xec
 373 24 l 2
 373 10 362 -1 348 -1 c 2
 266 -1 l 2
 252 -1 241 10 241 24 c 2
 241 272 l 1
 133 272 l 2
 78 272 33 317 33 372 c 2
 33 497 l 2
 33 552 78 597 133 597 c 2
 210 597 l 2
 224 597 237 594 248 590 c 1
 253 594 259 597 266 597 c 2xdc
 348 597 l 2
 362 597 373 586 373 572 c 2
 373 488 l 2xec
 373 475 362 463 348 463 c 2
 310 463 l 1
 310 342 l 1xea
 348 342 l 2
 362 342 373 331 373 317 c 2xec
241 367 m 2xda
 241 502 l 2xdc
 241 516 230 527 216 527 c 2
 127 527 l 2
 114 527 102 516 102 502 c 2
 102 367 l 2
 102 353 114 342 127 342 c 2
 216 342 l 2
 230 342 241 353 241 367 c 2xda
EndSplineSet
Validated: 1
Layer: 2
EndChar

StartChar: R
Encoding: 82 82 20
GlifName: R_
Width: 433
Flags: W
HStem: -1 21G<67 181 338 371> 223 119<257.198 318.893> 272 70<181.198 256> 463 133<48.1976 111> 527 70<181.203 319.023>
VStem: 48 133<-0.615692 272 463.214 526.802> 111 70<342.198 463> 257 131<223.198 272> 319 69<-0.615692 223 342.732 526.652>
LayerCount: 3
Back
Fore
SplineSet
389 497 m 2x8c
 389 372 l 2
 389 345 382 320 364 302 c 1
 378 302 388 291 388 277 c 2
 388 24 l 2
 388 10 378 -1 364 -1 c 2
 345 -1 l 2
 331 -1 319 10 319 24 c 2
 319 223 l 1
 282 223 l 2xcc80
 268 223 257 234 257 248 c 2
 256 272 l 1
 181 272 l 1xa5
 181 -1 l 1xa2
 74 -1 l 2
 60 -1 48 10 48 24 c 2
 48 317 l 2xa4
 48 331 59 342 73 342 c 2
 111 342 l 1
 111 463 l 1xb2
 73 463 l 2
 59 463 48 475 48 488 c 2
 48 571 l 2
 48 585 59 596 73 596 c 2
 155 596 l 2xb4
 160 596 166 593 172 589 c 1
 184 594 197 597 212 597 c 2
 289 597 l 2
 345 597 389 552 389 497 c 2x8c
320 367 m 2
 320 502 l 2
 320 516 309 527 295 527 c 2
 206 527 l 2
 192 527 181 516 181 502 c 2xcc
 181 367 l 2
 181 353 192 342 206 342 c 2xaa
 295 342 l 2
 309 342 320 353 320 367 c 2
EndSplineSet
Validated: 1
Layer: 2
EndChar

StartChar: S
Encoding: 83 83 21
GlifName: S_
Width: 413
Flags: W
HStem: -1 198<39.1976 170.786> -1 70<171 306.217> 271 70<131.348 306.744> 527 70<130.977 242.652>
VStem: 39 132<69 196.802> 61 69<341.416 526.652> 244 69<375.214 526.652> 308 70<69.3479 271.56>
LayerCount: 3
Back
Fore
SplineSet
378 242 m 6x75
 378 99 l 6
 378 44 334 -1 279 -1 c 6x75
 64 -1 l 6
 50 -1 39 10 39 24 c 6
 39 172 l 6
 39 186 50 197 64 197 c 6
 146 197 l 6xb9
 159 197 171 186 171 172 c 6
 171 69 l 5
 283 69 l 6
 296 69 308 80 308 94 c 6
 308 247 l 6x79
 308 261 296 272 283 272 c 6
 161 271 l 6
 106 271 61 316 61 371 c 6
 61 497 l 6
 61 552 105 597 161 597 c 6
 213 597 l 6
 268 597 313 552 313 497 c 6
 313 400 l 6
 313 387 301 375 288 375 c 6
 269 375 l 6
 255 375 244 387 244 400 c 6
 244 502 l 6x76
 244 516 232 527 219 527 c 6
 155 527 l 6
 141 527 130 516 130 502 c 6
 130 366 l 6
 130 353 142 341 156 341 c 6
 277 341 l 6
 332 341 378 297 378 242 c 6x75
EndSplineSet
Validated: 1
Layer: 2
EndChar

StartChar: U
Encoding: 85 85 22
GlifName: U_
Width: 479
Flags: W
HStem: -1 70<180.577 317.652> 577 20G<130 162 337 432.5>
VStem: 48 132<69.1976 341.616> 111 69<342 596.616> 319 69<69.3479 399>
LayerCount: 3
Back
Fore
SplineSet
451 572 m 2xe8
 451 424 l 2
 451 410 439 399 426 399 c 2
 388 399 l 1
 388 99 l 2
 388 44 343 -1 288 -1 c 2
 211 -1 l 2
 196 -1 182 3 170 9 c 1
 166 3 163 -1 156 -1 c 2
 74 -1 l 2
 60 -1 48 10 48 24 c 2
 48 317 l 2xe8
 48 331 60 342 74 342 c 2
 111 342 l 1
 111 572 l 2
 111 586 123 597 137 597 c 2
 155 597 l 2
 169 597 180 586 180 572 c 2xd8
 180 94 l 2
 180 80 191 69 205 69 c 2
 294 69 l 2
 307 69 319 80 319 94 c 2
 319 572 l 2
 319 586 330 597 344 597 c 2
 426 597 l 2
 439 597 451 586 451 572 c 2xe8
EndSplineSet
Validated: 1
Layer: 2
EndChar

StartChar: V
Encoding: 86 86 23
GlifName: V_
Width: 463
Flags: W
HStem: -1 70<176.198 263.616> 577 20G<125 157.5 361 393>
VStem: 44 132<69.1976 341.802> 106 70<342 596.616> 264 70<69.5129 164.59> 342 70<227.804 596.616>
LayerCount: 3
Back
Fore
SplineSet
412 572 m 2xec
 412 191 l 2
 412 177 400 166 387 166 c 2
 358 166 l 2
 344 165 334 155 334 141 c 2
 334 100 l 2
 334 43 289 -1 234 -1 c 2
 206 -1 l 2
 192 -1 178 3 165 9 c 1
 162 3 158 -1 151 -1 c 2
 69 -1 l 2
 55 -1 44 10 44 24 c 2
 44 317 l 2xec
 44 331 55 342 69 342 c 2
 106 342 l 1
 106 572 l 2
 106 586 118 597 132 597 c 2
 151 597 l 2
 164 597 176 586 176 572 c 2xdc
 176 94 l 2
 176 80 187 69 201 69 c 2
 239 69 l 2
 253 69 264 81 264 95 c 2
 264 137 l 2
 264 184 297 224 342 235 c 1
 342 572 l 2
 342 586 354 597 368 597 c 2
 386 597 l 2
 400 597 412 586 412 572 c 2xec
EndSplineSet
Validated: 1
Layer: 2
EndChar

StartChar: W
Encoding: 87 87 24
GlifName: W_
Width: 618
Flags: W
HStem: -1 70<176.63 279 349 416.649> 577 20G<125 157.5 516 548>
VStem: 44 132<69.1976 341.802> 106 70<342 596.616> 279 70<69 466.616> 419 70<69.8843 164.59> 497 70<227.804 596.616>
LayerCount: 3
Back
Fore
SplineSet
567 572 m 2xee
 567 191 l 2
 567 177 555 166 542 166 c 2
 513 166 l 2
 499 165 489 155 489 141 c 2
 489 100 l 2
 489 44 445 -1 389 -1 c 2
 206 -1 l 2
 191 -1 178 3 165 9 c 1
 162 3 158 -1 151 -1 c 2
 69 -1 l 2
 55 -1 44 10 44 24 c 2
 44 317 l 2xee
 44 331 55 342 69 342 c 2
 106 342 l 1
 106 572 l 2
 106 586 118 597 132 597 c 2
 151 597 l 2
 164 597 176 586 176 572 c 2xde
 176 94 l 2
 176 80 187 69 201 69 c 2
 279 69 l 1
 279 442 l 2
 279 456 291 467 305 467 c 2
 324 467 l 2
 337 467 349 456 349 442 c 2
 349 69 l 1
 394 69 l 2
 408 69 419 81 419 95 c 2
 419 137 l 2
 419 184 452 224 497 235 c 1
 497 572 l 2
 497 586 509 597 523 597 c 2
 541 597 l 2
 555 597 567 586 567 572 c 2xee
EndSplineSet
Validated: 1
Layer: 2
EndChar

StartChar: Y
Encoding: 89 89 25
GlifName: Y_
Width: 369
Flags: W
HStem: -1 21G<48 175> 254 70<108.602 193.649> 577 20G<57.5 90 293 325>
VStem: 38 155<-0.802399 196.802> 38 70<197 263 324.198 596.616> 196 70<325.256 419.59> 274 70<481.87 596.616>
LayerCount: 3
Back
Fore
SplineSet
344 572 m 6xee
 344 446 l 6
 344 432 333 421 319 421 c 6
 290 421 l 6
 277 420 266 410 266 396 c 6
 266 355 l 6
 266 300 222 254 166 254 c 6
 138 254 l 6
 124 254 121 257 108 263 c 5
 108 197 l 5xee
 168 197 l 6
 182 197 193 186 193 172 c 6
 193 24 l 6
 193 10 182 -1 168 -1 c 6
 55 -1 l 6
 41 -1 38 10 38 24 c 6xf6
 38 572 l 6
 38 586 51 597 64 597 c 6
 83 597 l 6
 97 597 108 586 108 572 c 6
 108 349 l 6
 108 335 119 324 133 324 c 6
 171 324 l 6
 185 324 196 336 196 350 c 6
 196 392 l 6
 196 439 230 479 274 490 c 5
 274 572 l 6
 274 586 286 597 300 597 c 6
 318 597 l 6
 332 597 344 586 344 572 c 6xee
EndSplineSet
Validated: 1
Layer: 2
EndChar

StartChar: Z
Encoding: 90 90 26
GlifName: Z_
Width: 443
Flags: W
HStem: -1 70<115.783 276> 271 70<115.256 315.652> 440 158<39.1976 170.802> 527 70<171.775 315.652>
VStem: 39 132<440.198 526.733> 44 70<69.3479 269.217> 276 132<69 196.802> 317 69<341.416 526.652>
LayerCount: 3
Back
Fore
SplineSet
408 172 m 6xd6
 408 24 l 6xd6
 408 10 397 -1 383 -1 c 6
 143 -1 l 6
 88 -1 44 44 44 99 c 6
 44 242 l 6
 44 297 90 341 145 341 c 6
 291 341 l 6
 305 341 317 353 317 366 c 6
 317 502 l 6
 317 516 305 527 292 527 c 6
 196 527 l 6xd5
 182 527 171 512 171 499 c 6
 171 465 l 6
 171 451 160 440 146 440 c 6
 64 440 l 6
 50 440 39 451 39 465 c 6
 39 573 l 6
 39 586 50 598 64 598 c 6xe9
 286 597 l 6
 341 597 386 552 386 497 c 6
 386 371 l 6xd9
 386 316 341 271 286 271 c 6
 139 271 l 6
 125 271 114 260 114 246 c 6
 114 94 l 6
 114 80 125 69 139 69 c 6
 276 69 l 5
 276 172 l 6
 276 186 287 197 301 197 c 6
 383 197 l 6
 397 197 408 186 408 172 c 6xd6
EndSplineSet
Validated: 1
Layer: 2
EndChar

StartChar: a
Encoding: 97 97 27
GlifName: a
Width: 457
Flags: W
HStem: -1 38.25<42.0518 66.625> 223 119<226.414 289> 292 50<150 225.802> 527 70<151.348 288.023>
VStem: 19 23<37.2509 73 104.251 140 170.368 206> 81 69<342 526.652> 130 20<117 153.499 184 220.499 251 286.749> 226 132<223.198 291.802> 289 132<-0.802399 196.802> 289 69<197 223 342 526.652>
LayerCount: 3
Back
Fore
SplineSet
421 172 m 2xb880
 421 24 l 2
 421 10 410 -1 396 -1 c 2
 314 -1 l 2
 300 -1 289 10 289 24 c 2xb880
 289 223 l 1
 251 223 l 2xd840
 238 223 227 234 226 248 c 2
 226 267 l 2
 226 281 215 292 201 292 c 2
 150 292 l 1
 150 24 l 2xbb
 150 10 140 -1 126 -1 c 2
 44 -1 l 2
 30 -1 19 10 19 24 c 2
 19 317 l 2
 19 331 30 342 44 342 c 2
 81 342 l 1
 81 497 l 2
 81 552 126 597 181 597 c 2
 258 597 l 2
 314 597 358 552 358 497 c 2
 358 197 l 1xbc40
 396 197 l 2
 410 197 421 186 421 172 c 2xb880
150 342 m 1xbc40
 289 342 l 1xdc40
 289 502 l 2
 289 516 278 527 264 527 c 2
 175 527 l 2
 162 527 150 516 150 502 c 2
 150 342 l 1xbc40
52 174 m 6
 130 251 l 5
 130 283 l 6x9a
 130 285.5 129 286.75 127.25 286.75 c 4
 125.5 286.75 123 285.5 120 283 c 6
 42 206 l 5
 42 175 l 6
 42 171.86335345 43.3664654969 170.366465497 45.3850432763 170.366465497 c 4
 47.2277442495 170.366465497 49.6138721247 171.613872125 52 174 c 6
52 108 m 6
 130 184 l 5
 130 216 l 6
 130 219 129 220.5 127.25 220.5 c 4
 125.5 220.5 123 219 120 216 c 6
 42 140 l 5
 42 108 l 6
 42 105.5 43.25 104.25 45.125 104.25 c 4
 47 104.25 49.5 105.5 52 108 c 6
52 41 m 6
 130 117 l 5
 130 149 l 6
 130 152 129 153.5 127.25 153.5 c 4
 125.5 153.5 123 152 120 149 c 6
 42 73 l 5
 42 41 l 6
 42 38.5 43.25 37.25 45.125 37.25 c 4
 47 37.25 49.5 38.5 52 41 c 6
EndSplineSet
Validated: 1
Layer: 2
EndChar

StartChar: b
Encoding: 98 98 28
GlifName: b
Width: 427
Flags: W
HStem: -1 71<179.18 315.566> -1 38.25<67.4911 91.625> 292 50<179 253.802> 463 133<46.1976 108> 527 69<179.502 291.566>
VStem: 46 21<37.2509 73 104.251 140 170.367 206> 108 71<342 463> 155 24<117 153.499 184 220.499 251 286.749> 292 70<342 526.56> 317 69<71.7046 223>
LayerCount: 3
Back
Fore
SplineSet
77 174 m 6x25
 155 251 l 5
 155 283 l 6
 155 285.5 154 286.75 152.25 286.75 c 4
 150.5 286.75 148 285.5 145 283 c 6
 67 206 l 5
 67 175 l 6
 67 171.86328125 68.3662109375 170.366210938 70.384765625 170.366210938 c 4
 72.2275390625 170.366210938 74.6142578125 171.614257812 77 174 c 6x25
77 108 m 6
 155 184 l 5
 155 216 l 6
 155 219 154 220.5 152.25 220.5 c 4
 150.5 220.5 148 219 145 216 c 6
 67 140 l 5
 67 108 l 6
 67 105.5 68.25 104.25 70.125 104.25 c 4
 72 104.25 74.5 105.5 77 108 c 6
77 41 m 6
 155 117 l 5
 155 149 l 6
 155 152 154 153.5 152.25 153.5 c 4
 150.5 153.5 148 152 145 149 c 6
 67 73 l 5
 67 41 l 6
 67 38.5 68.25 37.25 70.125 37.25 c 4x65
 72 37.25 74.5 38.5 77 41 c 6
386 277 m 2x2c40
 386 99 l 2
 385 44 341 -1 286 -1 c 2
 240 -1 l 1xac40
 72 -1 l 2
 58 -1 46 10 46 24 c 2
 46 317 l 2
 46 331 57 342 71 342 c 2
 108 342 l 1
 108 463 l 1
 71 463 l 2
 57 463 46 475 46 488 c 2
 46 571 l 2
 46 585 57 596 71 596 c 2x7640
 153 596 l 2
 162 596 170 591 174 584 c 1
 189 592 201 596 219 596 c 2
 262 596 l 2
 317 596 361 552 362 497 c 2
 362 327 l 2
 362 313 350 302 337 302 c 2
 362 302 l 2x2e80
 376 302 386 291 386 277 c 2x2c40
179 342 m 1x2e
 292 342 l 1
 292 342 292 424 292 502 c 0
 292 516 281 527 267 527 c 2
 204 527 l 2
 190 527 179 516 179 502 c 2x2d80
 179 342 l 1x2e
317 95 m 0xa440
 317 143 317 223 317 223 c 1xa440
 280 223 l 2
 266 223 255 234 255 248 c 2
 254 267 l 2
 254 281 243 292 229 292 c 2
 179 292 l 1
 179 95 l 2
 179 81 189 70 203 70 c 2
 292 70 l 2xa580
 305 70 316 81 317 95 c 0xa440
EndSplineSet
Validated: 1
Layer: 2
EndChar

StartChar: c
Encoding: 99 99 29
GlifName: c
Width: 414
Flags: HMW
HStem: -1 50<179 229 229 236 179 361> -1 134<279 361 279 361> 375 222<209 343 209 361> 527 70<197 287 209 287 287 292>
VStem: 47 24<38.5 41 41 73 105.5 108 108 140 172 175 175 206> 109 70<342 497 497 502 49 524.5> 159 20<117 149 149 152 184 216 216 219 251 283 283 285.5> 254 132<74 108 17 115> 317 69<400 497>
LayerCount: 3
Back
Fore
SplineSet
79 174 m 6x08
 157 251 l 5
 157 283 l 6
 157 285.5 156 286.75 154.25 286.75 c 4
 152.5 286.75 150 285.5 147 283 c 6
 69 206 l 5
 69 175 l 6
 69 171.86328125 70.3662109375 170.366210938 72.384765625 170.366210938 c 4
 74.2275390625 170.366210938 76.6142578125 171.614257812 79 174 c 6x08
79 108 m 6
 157 184 l 5
 157 216 l 6
 157 219 156 220.5 154.25 220.5 c 4
 152.5 220.5 150 219 147 216 c 6
 69 140 l 5
 69 108 l 6
 69 105.5 70.25 104.25 72.125 104.25 c 4
 74 104.25 76.5 105.5 79 108 c 6
79 41 m 6
 157 117 l 5
 157 149 l 6
 157 152 156 153.5 154.25 153.5 c 4
 152.5 153.5 150 152 147 149 c 6
 69 73 l 5
 69 41 l 6
 69 38.5 70.25 37.25 72.125 37.25 c 4
 74 37.25 76.5 38.5 79 41 c 6
386 108 m 2x4d
 386 24 l 2
 386 10 375 -1 361 -1 c 2x8d
 72 -1 l 2
 58 -1 47 10 47 24 c 2
 47 317 l 2
 47 331 58 342 72 342 c 2
 109 342 l 1
 109 497 l 2
 109 552 154 597 209 597 c 2
 287 597 l 2
 342 597 386 552 386 497 c 2
 386 400 l 2
 386 387 375 375 361 375 c 2
 343 375 l 2x6c80
 329 375 317 387 317 400 c 2
 317 502 l 2
 317 516 306 527 292 527 c 2
 204 527 l 2
 190 527 179 516 179 502 c 2
 179 49 l 1
 229 49 l 2x9c80
 243 49 254 60 254 74 c 2
 254 108 l 2
 254 122 265 133 279 133 c 2
 361 133 l 2
 375 133 386 122 386 108 c 2x4d
EndSplineSet
Validated: 1
Layer: 2
EndChar

StartChar: d
Encoding: 100 100 30
GlifName: d
Width: 429
Flags: W
HStem: -1 70<178.577 315.652> -1 38.25<67.4911 91.625> 463 134<46.1976 109> 527 70<178.329 315.652>
VStem: 46 21<37.2509 73 104.251 140 170.368 206> 109 69<342 463> 155 23<117 153.499 184 220.499 251 286.749> 317 69<69.3479 526.652>
LayerCount: 3
Back
Fore
SplineSet
386 497 m 6x1d
 386 99 l 6
 386 44 341 -1 286 -1 c 6
 209 -1 l 6x9d
 194 -1 180 3 168 8 c 5
 164 3 160 -1 154 -1 c 6
 72 -1 l 6
 58 -1 46 10 46 24 c 6
 46 317 l 6
 46 331 58 342 72 342 c 6
 109 342 l 5
 109 463 l 5
 71 463 l 6
 57 463 46 475 46 488 c 6
 46 572 l 6
 46 586 57 597 71 597 c 6x6d
 153 597 l 6
 160 597 167 594 171 589 c 5
 183 594 195 597 209 597 c 6
 286 597 l 6
 341 597 386 552 386 497 c 6x1d
317 94 m 6
 317 502 l 6
 317 516 305 527 292 527 c 6
 203 527 l 6
 189 527 178 516 178 502 c 6
 178 94 l 6x9b
 178 80 189 69 203 69 c 6
 292 69 l 6
 305 69 317 80 317 94 c 6
77 174 m 6
 155 251 l 5
 155 283 l 6
 155 285.5 154 286.75 152.25 286.75 c 4
 150.5 286.75 148 285.5 145 283 c 6
 67 206 l 5
 67 175 l 6
 67 171.86335345 68.3664654969 170.366465497 70.3850432763 170.366465497 c 4
 72.2277442495 170.366465497 74.6138721247 171.613872125 77 174 c 6
77 108 m 6
 155 184 l 5
 155 216 l 6
 155 219 154 220.5 152.25 220.5 c 4
 150.5 220.5 148 219 145 216 c 6
 67 140 l 5
 67 108 l 6
 67 105.5 68.25 104.25 70.125 104.25 c 4
 72 104.25 74.5 105.5 77 108 c 6
77 41 m 6
 155 117 l 5
 155 149 l 6
 155 152 154 153.5 152.25 153.5 c 4
 150.5 153.5 148 152 145 149 c 6
 67 73 l 5
 67 41 l 6
 67 38.5 68.25 37.25 70.125 37.25 c 4x4b
 72 37.25 74.5 38.5 77 41 c 6
EndSplineSet
Validated: 1
Layer: 2
EndChar

StartChar: e
Encoding: 101 101 31
GlifName: e
Width: 412
Flags: HMW
HStem: -1 50<178 229 229 236 178 361> -1 134<279 361 279 361> 292 50<178 293> 292 297 443 154<272 279 279 361> 463 134<64 153 71 109> 527 70<71 203 209 229>
VStem: 47 23<38.5 41 41 73 105.5 108 108 140 172 175 175 206> 47 272<309.5 317 317 323 309.5 324> 109 69<342 463 463 463> 158 20<117 149 149 152 184 216 216 219 251 283 283 285.5> 254 132<74 108 17 115 468 502 502 508.5>
LayerCount: 3
Back
Fore
SplineSet
386 108 m 2x6350
 386 24 l 2
 386 10 375 -1 361 -1 c 2
 72 -1 l 2
 58 -1 47 10 47 24 c 2
 47 317 l 2
 47 331 58 342 72 342 c 2
 109 342 l 1
 109 463 l 1
 71 463 l 2x6550
 57 463 46 474 46 488 c 2
 46 572 l 2
 46 586 57 597 71 597 c 2
 153 597 l 2x6350
 160 597 166 594 170 589 c 1x5150
 182 594 195 597 209 597 c 2
 361 597 l 2
 375 597 386 586 386 572 c 2
 386 468 l 2
 386 454 375 443 361 443 c 2
 279 443 l 2x6950
 265 443 254 454 254 468 c 2
 254 502 l 2
 254 515 243 527 229 527 c 2
 203 527 l 2
 190 527 178 515 178 502 c 2
 178 342 l 1x6350
 293 342 l 2
 307 342 319 330 319 316 c 0x6280
 319 303 307 292 293 292 c 2
 178 292 l 1
 178 49 l 1
 229 49 l 2xa350
 243 49 254 60 254 74 c 2
 254 108 l 2
 254 122 265 133 279 133 c 2
 361 133 l 2
 375 133 386 122 386 108 c 2x6350
80 174 m 6
 158 251 l 5
 158 283 l 6x6330
 158 285.5 157 286.75 155.25 286.75 c 0
 153.5 286.75 151 285.5 148 283 c 6
 70 206 l 5
 70 175 l 6
 70 171.86335345 71.3664654969 170.366465497 73.3850432763 170.366465497 c 0
 75.2277442495 170.366465497 77.6138721247 171.613872125 80 174 c 6
80 108 m 6
 158 184 l 5
 158 216 l 6
 158 219 157 220.5 155.25 220.5 c 0
 153.5 220.5 151 219 148 216 c 6
 70 140 l 5
 70 108 l 6
 70 105.5 71.25 104.25 73.125 104.25 c 0
 75 104.25 77.5 105.5 80 108 c 6
80 41 m 6
 158 117 l 5
 158 149 l 6
 158 152 157 153.5 155.25 153.5 c 0
 153.5 153.5 151 152 148 149 c 6
 70 73 l 5
 70 41 l 6
 70 38.5 71.25 37.25 73.125 37.25 c 0
 75 37.25 77.5 38.5 80 41 c 6
EndSplineSet
Validated: 1
Layer: 2
EndChar

StartChar: f
Encoding: 102 102 32
GlifName: f
Width: 403
Flags: W
HStem: -1 38<70.0518 94.625> 292 50<178 318.582> 443 154<254.198 385.802> 463 134<46.1976 109> 527 70<178.602 253.802>
VStem: 47 23<37.0015 73 104.001 140 170.001 206> 109 69<342 463> 158 20<117 153.999 184 219.999 251 286.999> 254 132<443.198 526.786>
LayerCount: 3
Back
Fore
SplineSet
386 572 m 6xe680
 386 468 l 6
 386 454 375 443 361 443 c 6
 279 443 l 6xe680
 265 443 254 454 254 468 c 6
 254 502 l 6
 254 515 243 527 229 527 c 6
 203 527 l 6
 190 527 178 515 178 502 c 6xcd80
 178 342 l 5xce80
 293 342 l 6
 307 342 319 330 319 316 c 4
 319 303 307 292 293 292 c 6
 178 292 l 5
 178 -1 l 5xcd80
 72 -1 l 6
 58 -1 47 10 47 24 c 6
 47 317 l 6
 47 331 58 342 72 342 c 6
 109 342 l 5
 109 463 l 5
 71 463 l 6
 57 463 46 474 46 488 c 6
 46 572 l 6
 46 586 57 597 71 597 c 6xd680
 153 597 l 6
 160 597 166 594 170 589 c 5
 182 594 195 597 209 597 c 6xce80
 361 597 l 6
 375 597 386 586 386 572 c 6xe680
80 174 m 6
 158 251 l 5
 158 283 l 6xc580
 158 285 157 287 155 287 c 4
 153 287 151 285 148 283 c 6
 70 206 l 5
 70 175 l 6
 70 172 71 170 73 170 c 4
 75 170 78 172 80 174 c 6
80 108 m 6
 158 184 l 5
 158 216 l 6
 158 219 157 220 155 220 c 4
 153 220 151 219 148 216 c 6
 70 140 l 5
 70 108 l 6
 70 106 71 104 73 104 c 4
 75 104 78 106 80 108 c 6
80 41 m 6
 158 117 l 5
 158 149 l 6
 158 152 157 154 155 154 c 4
 153 154 151 152 148 149 c 6
 70 73 l 5
 70 41 l 6
 70 39 71 37 73 37 c 4
 75 37 78 39 80 41 c 6
EndSplineSet
Validated: 1
Layer: 2
EndChar

StartChar: g
Encoding: 103 103 33
GlifName: g
Width: 413
Flags: W
HStem: -1 70<165 302.652> -1 38<55.4121 79.625> 207 134<241.198 304> 527 70<165.348 302.56>
VStem: 33 22<37.0015 73 104.001 140 170.001 206> 95 70<342 526.652> 143 22<117 153.999 184 219.999 251 286.999> 241 132<207.198 340.802> 304 69<69.3479 207 375.416 526.616>
LayerCount: 3
Back
Fore
SplineSet
373 316 m 6xb9
 373 99 l 6
 373 44 328 -1 273 -1 c 6xb880
 58 -1 l 6
 44 -1 33 10 33 24 c 6
 33 317 l 6
 33 331 44 342 58 342 c 6
 95 342 l 5
 95 497 l 6
 95 552 140 597 195 597 c 6
 273 597 l 6
 328 597 372 552 372 497 c 6
 372 400 l 6
 372 387 361 375 347 375 c 6
 329 375 l 6
 315 375 303 387 303 400 c 6
 303 502 l 6
 303 516 292 527 278 527 c 6
 190 527 l 6
 176 527 165 516 165 502 c 6x7c80
 165 69 l 5
 279 69 l 6
 292 69 304 80 304 94 c 6
 304 207 l 5xba80
 266 207 l 6
 252 207 241 218 241 232 c 6
 241 316 l 6
 241 330 252 341 266 341 c 6
 348 341 l 6
 361 341 373 330 373 316 c 6xb9
65 174 m 6
 143 251 l 5
 143 283 l 6x3a
 143 285 142 287 140 287 c 4
 138 287 136 285 133 283 c 6
 55 206 l 5
 55 175 l 6
 55 172 56 170 58 170 c 4
 60 170 63 172 65 174 c 6
65 108 m 6
 143 184 l 5
 143 216 l 6
 143 219 142 220 140 220 c 4
 138 220 136 219 133 216 c 6
 55 140 l 5
 55 108 l 6
 55 106 56 104 58 104 c 4
 60 104 63 106 65 108 c 6
65 41 m 6
 143 117 l 5
 143 149 l 6
 143 152 142 154 140 154 c 4
 138 154 136 152 133 149 c 6
 55 73 l 5
 55 41 l 6
 55 39 56 37 58 37 c 4x7a
 60 37 63 39 65 41 c 6
EndSplineSet
Validated: 1
Layer: 2
EndChar

StartChar: h
Encoding: 104 104 34
GlifName: h
Width: 482
Flags: W
HStem: -1 38<66.0518 90.625> 223 119<251.198 313> 292 50<174 249.802> 577 20G<124 157 332 365>
VStem: 43 23<37.0015 73 104.001 140 170.001 206> 105 69<342 596.616> 154 20<117 153.999 184 219.999 251 286.999> 251 132<223.198 291.616> 313 132<-0.802399 196.802> 313 70<197 223 342 596.616>
LayerCount: 3
Back
Fore
SplineSet
445 172 m 2xd880
 445 24 l 2
 445 10 434 -1 420 -1 c 2
 338 -1 l 2
 324 -1 313 10 313 24 c 2xd880
 313 223 l 1
 276 223 l 2xd840
 262 223 251 234 251 248 c 2
 250 267 l 2
 250 281 239 292 225 292 c 2
 174 292 l 1
 174 262 175 312 174 24 c 0xbb
 174 10 163 -1 149 -1 c 2
 68 -1 l 2
 54 -1 43 10 43 24 c 2
 43 317 l 2
 43 331 54 342 68 342 c 2
 105 342 l 1
 105 572 l 2
 105 586 117 597 131 597 c 2
 150 597 l 2
 164 597 174 586 174 572 c 2
 174 342 l 1xbc
 313 342 l 1
 313 572 l 2
 313 586 325 597 339 597 c 2
 358 597 l 2
 372 597 383 586 383 572 c 2
 383 197 l 1xdc40
 420 197 l 2
 434 197 445 186 445 172 c 2xd880
76 174 m 2
 154 251 l 1
 154 283 l 2x9a
 154 285 153 287 151 287 c 0
 149 287 147 285 144 283 c 2
 66 206 l 1
 66 175 l 2
 66 172 67 170 69 170 c 0
 71 170 74 172 76 174 c 2
76 108 m 2
 154 184 l 1
 154 216 l 2
 154 219 153 220 151 220 c 0
 149 220 147 219 144 216 c 2
 66 140 l 1
 66 108 l 2
 66 106 67 104 69 104 c 0
 71 104 74 106 76 108 c 2
76 41 m 2
 154 117 l 1
 154 149 l 2
 154 152 153 154 151 154 c 0
 149 154 147 152 144 149 c 2
 66 73 l 1
 66 41 l 2
 66 39 67 37 69 37 c 0
 71 37 74 39 76 41 c 2
EndSplineSet
Validated: 1
Layer: 2
EndChar

StartChar: i
Encoding: 105 105 35
GlifName: i
Width: 266
Flags: HMW
HStem: -1 20 463 134<108 197 115 152>
VStem: 90 25<38.5 41 41 73 105.5 108 108 140 172 175 175 206> 152 70<342 463 463 463> 203 19<117 149 149 152 184 216 216 219 251 283 283 285.5>
LayerCount: 3
Back
Fore
SplineSet
222 572 m 6xf0
 222 24 l 6
 222 10 211 -1 197 -1 c 6
 115 -1 l 6
 102 -1 90 10 90 24 c 6
 90 317 l 6
 90 331 102 342 115 342 c 6
 152 342 l 5
 152 463 l 5
 115 463 l 6
 101 463 90 474 90 488 c 6
 90 572 l 6
 90 586 101 597 115 597 c 6
 197 597 l 6
 211 597 222 586 222 572 c 6xf0
125 174 m 6
 203 251 l 5xe8
 203 283 l 6
 203 285 202 287 200 287 c 4
 198 287 196 285 193 283 c 6
 115 206 l 5
 115 175 l 6
 115 172 116 170 118 170 c 4
 120 170 123 172 125 174 c 6
125 108 m 6
 203 184 l 5
 203 216 l 6
 203 219 202 220 200 220 c 4
 198 220 196 219 193 216 c 6
 115 140 l 5
 115 108 l 6
 115 106 116 104 118 104 c 4
 120 104 123 106 125 108 c 6
125 41 m 6
 203 117 l 5
 203 149 l 6
 203 152 202 154 200 154 c 4
 198 154 196 152 193 149 c 6
 115 73 l 5
 115 41 l 6
 115 39 116 37 118 37 c 4
 120 37 123 39 125 41 c 6
EndSplineSet
Validated: 1
Layer: 2
EndChar

StartChar: j
Encoding: 106 106 36
GlifName: j
Width: 421
Flags: MW
HStem: -1 50<197 245 197 351> -1 134<58 147 65 147 147 154 65 351> 463 134<262.5 351 269 307>
VStem: 40 132<67 74 74 108 67 115> 245 25<49 73 105.5 108 108 140 172 175 175 206> 307 69<342 463 463 463> 358 18<117 149 149 152 184 216 216 219 251 283 283 285.5>
LayerCount: 3
Back
Fore
SplineSet
376 572 m 2x7c
 376 24 l 2
 376 10 365 -1 351 -1 c 2
 65 -1 l 2
 51 -1 40 10 40 24 c 2
 40 108 l 2
 40 122 51 133 65 133 c 2
 147 133 l 2
 161 133 172 122 172 108 c 2
 172 74 l 2
 172 60 183 49 197 49 c 2xbc
 245 49 l 1
 245 317 l 2
 245 331 256 342 270 342 c 2
 307 342 l 1
 307 463 l 1
 269 463 l 2
 256 463 244 474 244 488 c 2
 244 572 l 2
 244 586 256 597 269 597 c 2
 351 597 l 2
 365 597 376 586 376 572 c 2x7c
280 174 m 2
 358 251 l 1x7a
 358 283 l 2
 358 288 354 288 348 283 c 2
 270 206 l 1
 270 175 l 2
 270 169 275 169 280 174 c 2
280 108 m 2
 358 184 l 1
 358 216 l 2
 358 222 354 222 348 216 c 2
 270 140 l 1
 270 108 l 2
 270 103 275 103 280 108 c 2
280 41 m 2
 358 117 l 1
 358 149 l 2
 358 155 354 155 348 149 c 2
 270 73 l 1
 270 41 l 2
 270 36 275 36 280 41 c 2
EndSplineSet
Validated: 1
Layer: 2
EndChar

StartChar: k
Encoding: 107 107 37
GlifName: k
Width: 435
Flags: MW
HStem: -1 303<72 369 79 369 344 350 350 369> 223 119<280 287 287 299> 292 50<186 236> 302 295<344 351 326 369 326 376> 463 133<71 160 78 115>
VStem: 54 25<-1 24> 115 71<342 463 463 463> 167 19<117 149 149 152 184 216 216 219 251 283 283 285.5> 262 131<241 248> 299 70<342 572> 324 69<24 223 223 223>
LayerCount: 3
Back
Fore
SplineSet
393 277 m 2x8e40
 393 24 l 2
 393 10 382 -1 369 -1 c 2x2d20
 350 -1 l 2
 336 -1 324 10 324 24 c 2x1640
 324 223 l 1
 287 223 l 2
 273 223 262 234 262 248 c 2x2e40
 261 267 l 2
 261 281 250 292 236 292 c 2
 186 292 l 1
 186 -1 l 1x8e40
 79 -1 l 2
 65 -1 54 10 54 24 c 2
 53 317 l 2
 53 331 64 342 78 342 c 2x2e80
 115 342 l 1
 115 463 l 1
 78 463 l 2
 64 463 53 475 53 488 c 2
 53 571 l 2
 53 585 64 596 78 596 c 2
 160 596 l 2
 169 596 186 585 186 571 c 2
 186 342 l 1
 299 342 l 1
 299 572 l 2
 299 586 312 597 326 597 c 2x4e20
 344 597 l 2
 358 597 369 586 369 572 c 2
 369 327 l 2
 369 313 357 302 344 302 c 2
 369 302 l 2
 383 302 393 291 393 277 c 2x8e40
89 174 m 2
 167 251 l 1
 167 283 l 2
 167 288 163 288 157 283 c 2
 79 206 l 1
 79 175 l 2
 79 169 84 169 89 174 c 2
89 108 m 2
 167 184 l 1
 167 216 l 2
 167 222 163 222 157 216 c 2
 79 140 l 1
 79 108 l 2
 79 103 84 103 89 108 c 2
89 41 m 2
 167 117 l 1
 167 149 l 2
 167 155 163 155 157 149 c 2
 79 73 l 1
 79 41 l 2
 79 36 84 36 89 41 c 2
EndSplineSet
Validated: 1
Layer: 2
EndChar

StartChar: l
Encoding: 108 108 38
GlifName: l
Width: 418
Flags: MW
HStem: -1 50<152 238 238 245 152 370> -1 134<288 370 288 370> 463 134<38 127 45 82>
VStem: 20 23<38.5 41 41 73 105.5 108 108 140 172 175 175 206> 82 70<342 463 463 463> 131 21<117 149 149 152 184 216 216 219 251 283 283 285.5> 263 132<74 108 17 115>
LayerCount: 3
Back
Fore
SplineSet
395 108 m 2x7a
 395 24 l 2
 395 10 384 -1 370 -1 c 2
 45 -1 l 2
 32 -1 20 10 20 24 c 2
 20 317 l 2
 20 331 32 342 45 342 c 2
 82 342 l 1
 82 463 l 1
 45 463 l 2
 31 463 20 474 20 488 c 2
 20 572 l 2
 20 586 31 597 45 597 c 2
 127 597 l 2
 141 597 152 586 152 572 c 2
 152 49 l 1x76
 238 49 l 2
 252 49 263 60 263 74 c 2
 263 108 l 2
 263 122 275 133 288 133 c 2xb6
 370 133 l 2
 384 133 395 122 395 108 c 2x7a
53 174 m 2
 131 251 l 1
 131 283 l 2
 131 288 127 288 121 283 c 2
 43 206 l 1
 43 175 l 2
 43 169 48 169 53 174 c 2
53 108 m 2
 131 184 l 1
 131 216 l 2
 131 222 127 222 121 216 c 2
 43 140 l 1
 43 108 l 2
 43 103 48 103 53 108 c 2
53 41 m 2
 131 117 l 1
 131 149 l 2
 131 155 127 155 121 149 c 2
 43 73 l 1
 43 41 l 2
 43 36 48 36 53 41 c 2
EndSplineSet
Validated: 1
Layer: 2
EndChar

StartChar: m
Encoding: 109 109 39
GlifName: m
Width: 586
Flags: MW
HStem: -1 198<437 526 488 526 488 526> 527 70<190 230 203 230 230 236 361 388 388 394>
VStem: 41 21<38.5 41 41 73 105.5 108 108 140 172 175 175 206> 103 69<342 497 497 502> 150 22<117 149 149 152 184 216 216 219 251 283 283 285.5> 261 69<250 502> 419 69<197 497 197 502 197 509> 419 132<24 172>
LayerCount: 3
Back
Fore
SplineSet
551 172 m 2xf6
 551 24 l 2
 551 10 539 -1 526 -1 c 2
 444 -1 l 2
 430 -1 419 10 419 24 c 2
 419 502 l 2
 419 516 407 527 394 527 c 2
 355 527 l 2
 341 527 330 516 330 502 c 2
 330 250 l 2
 330 237 318 225 305 225 c 2
 286 225 l 2
 272 225 261 237 261 250 c 2
 261 502 l 2
 261 516 249 527 236 527 c 2
 197 527 l 2
 183 527 172 516 172 502 c 2
 172 24 l 2
 172 10 161 -1 147 -1 c 2
 66 -1 l 2
 52 -1 41 10 41 24 c 2
 41 317 l 2
 41 331 52 342 66 342 c 2
 103 342 l 1
 103 497 l 2
 103 552 147 597 203 597 c 2
 230 597 l 2
 255 597 279 588 296 573 c 1
 314 587 336 597 361 597 c 2
 388 597 l 2
 443 597 488 552 488 497 c 2xed
 488 197 l 1
 526 197 l 2
 539 197 551 186 551 172 c 2xf6
72 174 m 2
 150 251 l 1
 150 283 l 2
 150 288 146 288 140 283 c 2
 62 206 l 1
 62 175 l 2
 62 169 67 169 72 174 c 2
72 108 m 2
 150 184 l 1
 150 216 l 2
 150 222 146 222 140 216 c 2
 62 140 l 1
 62 108 l 2
 62 103 67 103 72 108 c 2
72 41 m 2
 150 117 l 1
 150 149 l 2
 150 155 146 155 140 149 c 2
 62 73 l 1
 62 41 l 2
 62 36 67 36 72 41 c 2
EndSplineSet
Validated: 1
Layer: 2
EndChar

StartChar: n
Encoding: 110 110 40
GlifName: n
Width: 586
Flags: W
HStem: -1 70<330.348 417.652> 527 70<172.348 259.652>
VStem: 40 20<41 73 108 140 175 206> 148 24<117 149 184 216 251 283> 260 70<69.3479 526.652> 418 70<69.3479 399>
LayerCount: 3
Back
Fore
SplineSet
550 572 m 6
 550 424 l 6
 550 410 539 399 525 399 c 6
 488 399 l 5
 488 99 l 6
 488 44 443 -1 388 -1 c 6
 360 -1 l 6
 305 -1 260 44 260 99 c 6
 260 502 l 6
 260 516 249 527 235 527 c 6
 197 527 l 6
 183 527 172 516 172 502 c 6
 172 24 l 6
 172 10 161 -1 147 -1 c 6
 65 -1 l 6
 52 -1 40 10 40 24 c 6
 40 317 l 6
 40 331 52 342 65 342 c 6
 102 342 l 5
 102 497 l 6
 102 552 147 597 202 597 c 6
 230 597 l 6
 285 597 330 552 330 497 c 6
 330 94 l 6
 330 80 341 69 355 69 c 6
 393 69 l 6
 407 69 418 80 418 94 c 6
 418 572 l 6
 418 586 430 597 443 597 c 6
 525 597 l 6
 539 597 550 586 550 572 c 6
70 174 m 6
 148 251 l 5
 148 283 l 6
 148 288 144 288 138 283 c 6
 60 206 l 5
 60 175 l 6
 60 169 64 169 70 174 c 6
70 108 m 6
 148 184 l 5
 148 216 l 6
 148 222 144 222 138 216 c 6
 60 140 l 5
 60 108 l 6
 60 103 64 103 70 108 c 6
70 41 m 6
 148 117 l 5
 148 149 l 6
 148 155 144 155 138 149 c 6
 60 73 l 5
 60 41 l 6
 60 36 64 36 70 41 c 6
EndSplineSet
Validated: 1
Layer: 2
EndChar

StartChar: o
Encoding: 111 111 41
GlifName: o
Width: 400
Flags: MW
HStem: -1 69<132.5 263 218 257> 527 70<147.5 257 160 257 257 263>
VStem: 60 50<105.5 108 108 140 172 175 175 206> 60 69<342 497 497 502 342 524.5> 198 20<117 149 149 152 184 216 216 219 251 283 283 285.5> 288 69<94 99 99 497>
LayerCount: 3
Back
Fore
SplineSet
357 497 m 2xdc
 357 99 l 2
 357 44 313 -1 257 -1 c 2
 160 -1 l 2
 105 -1 60 44 60 99 c 2
 60 497 l 2
 60 552 105 597 160 597 c 2
 257 597 l 2
 313 597 357 552 357 497 c 2xdc
288 94 m 2
 288 502 l 2
 288 516 277 527 263 527 c 2
 154 527 l 2
 141 527 129 516 129 502 c 2
 129 342 l 1
 193 342 l 2
 207 342 218 331 218 317 c 2
 218 68 l 1
 263 68 l 2
 277 68 288 80 288 94 c 2
120 174 m 2
 198 251 l 1
 198 283 l 2
 198 288 194 288 188 283 c 2
 110 206 l 1xec
 110 175 l 2
 110 169 115 169 120 174 c 2
120 108 m 2
 198 184 l 1
 198 216 l 2
 198 222 194 222 188 216 c 2
 110 140 l 1
 110 108 l 2
 110 103 115 103 120 108 c 2
120 41 m 2
 198 117 l 1
 198 149 l 2
 198 155 194 155 188 149 c 2
 110 73 l 1
 110 41 l 2
 110 36 115 36 120 41 c 2
EndSplineSet
Validated: 1
Layer: 2
EndChar

StartChar: p
Encoding: 112 112 42
GlifName: p
Width: 411
Flags: MW
HStem: -1 20 272 70<196 279> 272 318 463 134<57 146 64 101> 527 70<64 196 201 279 279 284>
VStem: 39 24<38.5 41 41 73 105.5 108 108 140 172 175 175 206> 101 70<360 367 367 463 463 463> 151 20<117 149 149 152 184 216 216 219 251 272> 309 70<367 372 372 497>
LayerCount: 3
Back
Fore
SplineSet
379 497 m 2xd680
 379 372 l 2
 379 317 334 272 279 272 c 2
 171 272 l 1
 171 24 l 2
 171 10 160 -1 146 -1 c 2
 64 -1 l 2
 50 -1 39 10 39 24 c 2
 39 317 l 2
 39 331 50 342 64 342 c 2
 101 342 l 1
 101 463 l 1
 64 463 l 2
 50 463 39 475 39 488 c 2
 39 572 l 2
 39 586 50 597 64 597 c 2
 146 597 l 2
 153 597 159 594 163 590 c 1xce80
 175 594 188 597 201 597 c 2xa680
 279 597 l 2
 334 597 379 552 379 497 c 2xd680
309 367 m 2
 309 502 l 2
 309 516 298 527 284 527 c 2
 196 527 l 2
 182 527 171 516 171 502 c 2
 171 367 l 2
 171 353 182 342 196 342 c 2
 284 342 l 2
 298 342 309 353 309 367 c 2
73 174 m 2
 151 251 l 1xcd80
 151 283 l 2
 151 288 147 288 141 283 c 2
 63 206 l 1
 63 175 l 2
 63 169 68 169 73 174 c 2
73 108 m 2
 151 184 l 1
 151 216 l 2
 151 222 147 222 141 216 c 2
 63 140 l 1
 63 108 l 2
 63 103 68 103 73 108 c 2
73 41 m 2
 151 117 l 1
 151 149 l 2
 151 155 147 155 141 149 c 2
 63 73 l 1
 63 41 l 2
 63 36 68 36 73 41 c 2
EndSplineSet
Validated: 1
Layer: 2
EndChar

StartChar: q
Encoding: 113 113 43
GlifName: q
Width: 415
Flags: MW
HStem: -1 20 272 70<127 133 133 216 216 223 127 241> 463 134<310 348 310 310> 527 70<120.5 210 133 210 210 216>
VStem: 33 69<372 497 497 502> 241 26<38.5 41 41 73 105.5 108 108 140 172 175 175 206> 241 69<367 463 342 502 342 509> 355 18<117 149 149 152 184 216 216 219 251 283 283 285.5>
LayerCount: 3
Back
Fore
SplineSet
373 317 m 2xdb
 373 24 l 2
 373 10 362 -1 348 -1 c 2
 266 -1 l 2
 252 -1 241 10 241 24 c 2
 241 272 l 1
 133 272 l 2
 78 272 33 317 33 372 c 2
 33 497 l 2
 33 552 78 597 133 597 c 2
 210 597 l 2
 224 597 237 594 248 590 c 1
 253 594 259 597 266 597 c 2
 348 597 l 2
 362 597 373 586 373 572 c 2
 373 488 l 2
 373 475 362 463 348 463 c 2xeb
 310 463 l 1
 310 342 l 1
 348 342 l 2
 362 342 373 331 373 317 c 2xdb
241 367 m 2
 241 502 l 2
 241 516 230 527 216 527 c 2xdb
 127 527 l 2
 114 527 102 516 102 502 c 2
 102 367 l 2
 102 353 114 342 127 342 c 2
 216 342 l 2
 230 342 241 353 241 367 c 2
277 174 m 2
 355 251 l 1
 355 283 l 2
 355 288 351 288 345 283 c 2
 267 206 l 1xdd
 267 175 l 2
 267 169 272 169 277 174 c 2
277 108 m 2
 355 184 l 1
 355 216 l 2
 355 222 351 222 345 216 c 2
 267 140 l 1
 267 108 l 2
 267 103 272 103 277 108 c 2
277 41 m 2
 355 117 l 1
 355 149 l 2
 355 155 351 155 345 149 c 2
 267 73 l 1
 267 41 l 2
 267 36 272 36 277 41 c 2
EndSplineSet
Validated: 1
Layer: 2
EndChar

StartChar: r
Encoding: 114 114 44
GlifName: r
Width: 433
Flags: MW
HStem: -1 20 223 119<275 282 282 295 295 302> 272 70<206 256> 463 133<66 155 73 111> 527 70<199 289 212 289 289 295>
VStem: 48 22<38.5 41 41 73 105.5 108 108 140 172 175 175 206> 111 70<360 367 367 463 463 463> 158 23<117 149 149 152 184 216 216 219 251 272 -1 283 -1 285.5> 257 131<241 248> 319 69<24 223 223 223>
LayerCount: 3
Back
Fore
SplineSet
389 497 m 2xce40
 389 372 l 2
 389 345 382 320 364 302 c 1
 378 302 388 291 388 277 c 2
 388 24 l 2
 388 10 378 -1 364 -1 c 2
 345 -1 l 2
 331 -1 319 10 319 24 c 2
 319 223 l 1
 282 223 l 2
 268 223 257 234 257 248 c 2xae40
 256 272 l 1
 181 272 l 1
 181 -1 l 1
 74 -1 l 2
 60 -1 48 10 48 24 c 2
 48 317 l 2
 48 331 59 342 73 342 c 2
 111 342 l 1
 111 463 l 1
 73 463 l 2
 59 463 48 475 48 488 c 2
 48 571 l 2
 48 585 59 596 73 596 c 2
 155 596 l 2
 160 596 166 593 172 589 c 1
 184 594 197 597 212 597 c 2xb680
 289 597 l 2
 345 597 389 552 389 497 c 2xce40
320 367 m 2
 320 502 l 2
 320 516 309 527 295 527 c 2
 206 527 l 2
 192 527 181 516 181 502 c 2
 181 367 l 2
 181 353 192 342 206 342 c 2
 295 342 l 2
 309 342 320 353 320 367 c 2
80 174 m 2
 158 251 l 1xad40
 158 283 l 2
 158 288 154 288 148 283 c 2
 70 206 l 1
 70 175 l 2
 70 169 75 169 80 174 c 2
80 108 m 2
 158 184 l 1
 158 216 l 2
 158 222 154 222 148 216 c 2
 70 140 l 1
 70 108 l 2
 70 103 75 103 80 108 c 2
80 41 m 2
 158 117 l 1
 158 149 l 2
 158 155 154 155 148 149 c 2
 70 73 l 1
 70 41 l 2
 70 36 75 36 80 41 c 2
EndSplineSet
Validated: 1
Layer: 2
EndChar

StartChar: s
Encoding: 115 115 45
GlifName: s
Width: 413
Flags: MW
HStem: -1 70<171 279> -1 198<57 146 64 146 146 152.5 64 279> 272 69<283 289.5> 375 222<161 269 161 288> 527 70<148 213 161 213 213 219>
VStem: 39 132<69 172 69 172 69 179> 61 69<371 497 497 502> 244 69<400 497> 308 70<94 99 99 242>
LayerCount: 3
Back
Fore
SplineSet
378 242 m 2xac80
 378 99 l 2
 378 44 334 -1 279 -1 c 2
 64 -1 l 2
 50 -1 39 10 39 24 c 2
 39 172 l 2
 39 186 50 197 64 197 c 2xaa80
 146 197 l 2
 159 197 171 186 171 172 c 2
 171 69 l 1xb3
 283 69 l 2
 296 69 308 80 308 94 c 2
 308 247 l 2
 308 261 296 272 283 272 c 2
 161 271 l 2
 106 271 61 316 61 371 c 2xab
 61 497 l 2
 61 552 105 597 161 597 c 2
 213 597 l 2
 268 597 313 552 313 497 c 2
 313 400 l 2
 313 387 301 375 288 375 c 2xac80
 269 375 l 2
 255 375 244 387 244 400 c 2
 244 502 l 2
 244 516 232 527 219 527 c 2x6d
 155 527 l 2
 141 527 130 516 130 502 c 2
 130 366 l 2
 130 353 142 341 156 341 c 2
 277 341 l 2
 332 341 378 297 378 242 c 2xac80
EndSplineSet
Validated: 1
Layer: 2
EndChar

StartChar: t
Encoding: 116 116 46
GlifName: t
Width: 593
Flags: W
HStem: -1 21G<245 358> 463 134<41.1976 172.802 244.214 307 447.198 578.802> 547 50<173.198 244 376 446.802>
VStem: 41 132<463.198 546.802> 245 23<41 73 108 140 175 206> 307 69<342 463> 356 20<117 149 184 216 251 283> 447 132<463.198 546.802>
LayerCount: 3
Back
Fore
SplineSet
579 572 m 2xdd
 579 488 l 2
 579 474 568 463 554 463 c 2
 472 463 l 2xdd
 458 463 447 474 447 488 c 2
 447 522 l 2
 447 536 436 547 422 547 c 2
 376 547 l 1
 376 24 l 2xbb
 376 10 365 -1 351 -1 c 2
 245 -1 l 1
 245 317 l 2
 245 331 256 342 270 342 c 2
 307 342 l 1
 307 463 l 1
 269 463 l 2xdd
 256 463 244 474 244 488 c 2
 244 547 l 1
 198 547 l 2xbd
 184 547 173 536 173 522 c 2
 173 488 l 2
 173 474 162 463 148 463 c 2
 66 463 l 2
 52 463 41 474 41 488 c 2
 41 572 l 2
 41 586 52 597 66 597 c 2
 554 597 l 2
 568 597 579 586 579 572 c 2xdd
278 174 m 2
 356 251 l 1
 356 283 l 2x9b
 356 288 352 288 346 283 c 2
 268 206 l 1
 268 175 l 2
 268 169 273 169 278 174 c 2
278 108 m 2
 356 184 l 1
 356 216 l 2
 356 222 352 222 346 216 c 2
 268 140 l 1
 268 108 l 2
 268 103 273 103 278 108 c 2
278 41 m 2
 356 117 l 1
 356 149 l 2
 356 155 352 155 346 149 c 2
 268 73 l 1
 268 41 l 2
 268 36 273 36 278 41 c 2
EndSplineSet
Validated: 1
Layer: 2
EndChar

StartChar: u
Encoding: 117 117 47
GlifName: u
Width: 479
Flags: MW
HStem: -1 70<74 294 205 211 211 288> 399 198<388 426 388 388>
VStem: 48 23<38.5 41 41 73 105.5 108 108 140 172 175 175 206> 111 69<342 572> 159 21<117 149 149 152 184 216 216 219 251 283 283 285.5> 319 69<94 99 99 399> 319 132<417 424 424 572>
LayerCount: 3
Back
Fore
SplineSet
451 572 m 2xf4
 451 424 l 2
 451 410 439 399 426 399 c 2
 388 399 l 1xea
 388 99 l 2
 388 44 343 -1 288 -1 c 2
 211 -1 l 2
 196 -1 182 3 170 9 c 1
 166 3 163 -1 156 -1 c 2
 74 -1 l 2
 60 -1 48 10 48 24 c 2
 48 317 l 2
 48 331 60 342 74 342 c 2
 111 342 l 1
 111 572 l 2
 111 586 123 597 137 597 c 2
 155 597 l 2
 169 597 180 586 180 572 c 2
 180 94 l 2
 180 80 191 69 205 69 c 2
 294 69 l 2
 307 69 319 80 319 94 c 2
 319 572 l 2
 319 586 330 597 344 597 c 2
 426 597 l 2
 439 597 451 586 451 572 c 2xf4
81 174 m 2
 159 251 l 1
 159 283 l 2
 159 288 155 288 149 283 c 2
 71 206 l 1
 71 175 l 2
 71 169 75 169 81 174 c 2
81 108 m 2
 159 184 l 1
 159 216 l 2
 159 222 155 222 149 216 c 2
 71 140 l 1
 71 108 l 2
 71 103 75 103 81 108 c 2
81 41 m 2
 159 117 l 1
 159 149 l 2
 159 155 155 155 149 149 c 2
 71 73 l 1
 71 41 l 2
 71 36 75 36 81 41 c 2
EndSplineSet
Validated: 1
Layer: 2
EndChar

StartChar: v
Encoding: 118 118 48
GlifName: v
Width: 463
Flags: W
HStem: -1 70<176.198 263.616> -1 38<68.346 92.625> 577 20G<125 157.5 361 393>
VStem: 44 24<37.0015 73 104.001 140 170.001 206> 106 70<342 596.616> 156 20<117 153.999 184 219.999 251 286.999> 264 70<69.8843 164.59> 342 70<227.804 596.616>
LayerCount: 3
Back
Fore
SplineSet
412 572 m 6xb7
 412 191 l 6
 412 177 400 166 387 166 c 6
 358 166 l 6
 344 165 334 155 334 141 c 6
 334 100 l 6
 334 44 289 -1 234 -1 c 6
 206 -1 l 6xb7
 192 -1 178 3 165 9 c 5
 162 3 158 -1 151 -1 c 6
 69 -1 l 6
 55 -1 44 10 44 24 c 6
 44 317 l 6
 44 331 55 342 69 342 c 6
 106 342 l 5
 106 572 l 6
 106 586 118 597 132 597 c 6
 151 597 l 6
 164 597 176 586 176 572 c 6x7b
 176 94 l 6
 176 80 187 69 201 69 c 6
 239 69 l 6
 253 69 264 81 264 95 c 6
 264 137 l 6
 264 184 297 224 342 235 c 5
 342 572 l 6
 342 586 354 597 368 597 c 6
 386 597 l 6
 400 597 412 586 412 572 c 6xb7
78 174 m 6
 156 251 l 5
 156 283 l 6
 156 285 155 287 153 287 c 4
 151 287 149 285 146 283 c 6
 68 206 l 5
 68 175 l 6
 68 172 69 170 71 170 c 4
 73 170 76 172 78 174 c 6
78 108 m 6
 156 184 l 5
 156 216 l 6
 156 219 155 220 153 220 c 4
 151 220 149 219 146 216 c 6
 68 140 l 5
 68 108 l 6
 68 106 69 104 71 104 c 4
 73 104 76 106 78 108 c 6
78 41 m 6
 156 117 l 5
 156 149 l 6
 156 152 155 154 153 154 c 4
 151 154 149 152 146 149 c 6
 68 73 l 5
 68 41 l 6
 68 39 69 37 71 37 c 4x77
 73 37 76 39 78 41 c 6
EndSplineSet
Validated: 1
Layer: 2
EndChar

StartChar: w
Encoding: 119 119 49
GlifName: w
Width: 618
Flags: MW
HStem: -1 70<69 279 201 206 206 279 349 389> 577 20G<132 151 151 157.5 523 541 541 548>
VStem: 44 23<38.5 41 41 73 105.5 108 108 140 172 175 175 206> 106 70<342 572> 155 21<117 149 149 152 184 216 216 219 251 283 283 285.5> 279 70<69 442 69 449> 419 70<95 100 100 137 137 141 72 160.5> 497 70<235 572>
LayerCount: 3
Back
Fore
SplineSet
567 572 m 2xf7
 567 191 l 2
 567 177 555 166 542 166 c 2
 513 166 l 2
 499 165 489 155 489 141 c 2
 489 100 l 2
 489 44 445 -1 389 -1 c 2
 206 -1 l 2
 191 -1 178 3 165 9 c 1
 162 3 158 -1 151 -1 c 2
 69 -1 l 2
 55 -1 44 10 44 24 c 2
 44 317 l 2
 44 331 55 342 69 342 c 2
 106 342 l 1
 106 572 l 2
 106 586 118 597 132 597 c 2
 151 597 l 2
 164 597 176 586 176 572 c 2
 176 94 l 2
 176 80 187 69 201 69 c 2
 279 69 l 1
 279 442 l 2
 279 456 291 467 305 467 c 2
 324 467 l 2
 337 467 349 456 349 442 c 2
 349 69 l 1
 394 69 l 2
 408 69 419 81 419 95 c 2
 419 137 l 2
 419 184 452 224 497 235 c 1
 497 572 l 2
 497 586 509 597 523 597 c 2
 541 597 l 2
 555 597 567 586 567 572 c 2xf7
77 174 m 2
 155 251 l 1xef
 155 283 l 2
 155 288 151 288 145 283 c 2
 67 206 l 1
 67 175 l 2
 67 169 71 169 77 174 c 2
77 108 m 2
 155 184 l 1
 155 216 l 2
 155 222 151 222 145 216 c 2
 67 140 l 1
 67 108 l 2
 67 103 71 103 77 108 c 2
77 41 m 2
 155 117 l 1
 155 149 l 2
 155 155 151 155 145 149 c 2
 67 73 l 1
 67 41 l 2
 67 36 71 36 77 41 c 2
EndSplineSet
Validated: 1
Layer: 2
EndChar

StartChar: x
Encoding: 120 120 50
GlifName: x
Width: 489
Flags: MW
HStem: -1 198<61 105 68 105 68 150> 273 69<192 297 253 297 253 352> 273 157<192 253 199 253 297 352 199 352> 577 20G<131 149 149 156 401 420 420 427>
VStem: 43 132<24 172 172 179> 105 70<197 244 244 248 460 572> 182 71<343 365 365 365> 297 70<344 365 344 430 344 430> 376 70<24 244 456 460 460 572>
LayerCount: 3
Back
Fore
SplineSet
446 244 m 2xd780
 446 24 l 2
 446 10 434 -1 420 -1 c 2
 401 -1 l 2
 388 -1 376 10 376 24 c 2
 376 248 l 2
 376 262 366 273 352 273 c 2
 199 273 l 2
 185 273 175 262 175 248 c 2
 175 24 l 2
 175 10 164 -1 150 -1 c 2
 68 -1 l 2
 54 -1 43 10 43 24 c 2xb780
 43 172 l 2
 43 186 54 197 68 197 c 2
 105 197 l 1xd780
 105 244 l 2
 105 291 138 333 182 343 c 1
 182 365 l 1
 138 375 105 413 105 460 c 2
 105 572 l 2
 105 586 117 597 131 597 c 2
 149 597 l 2
 163 597 175 586 175 572 c 2
 175 456 l 2
 175 442 185 430 199 430 c 2
 253 430 l 1
 253 342 l 1xb780
 297 342 l 1
 297 430 l 1xdb80
 352 430 l 2
 366 430 376 442 376 456 c 2
 376 572 l 2
 376 586 388 597 401 597 c 2
 420 597 l 2
 434 597 446 586 446 572 c 2
 446 460 l 2
 446 413 412 375 367 365 c 1
 367 344 l 1
 412 334 446 291 446 244 c 2xd780
EndSplineSet
Validated: 1
Layer: 2
EndChar

StartChar: y
Encoding: 121 121 51
GlifName: y
Width: 369
Flags: W
HStem: -1 21G<48 175> 254 70<108.602 193.649> 577 20G<57.5 90 293 325>
VStem: 38 155<-0.802399 196.802> 38 70<197 263 324.198 596.616> 196 70<325.627 419.59> 274 70<481.87 596.616>
LayerCount: 3
Back
Fore
SplineSet
344 572 m 2xee
 344 446 l 2
 344 432 333 421 319 421 c 2
 290 421 l 2
 277 420 266 410 266 396 c 2
 266 355 l 2
 266 301 222 254 166 254 c 2
 138 254 l 2
 124 254 121 257 108 263 c 1
 108 197 l 1xee
 168 197 l 2
 182 197 193 186 193 172 c 2
 193 24 l 2
 193 10 182 -1 168 -1 c 2
 55 -1 l 2
 41 -1 38 10 38 24 c 2xf6
 38 572 l 2
 38 586 51 597 64 597 c 2
 83 597 l 2
 97 597 108 586 108 572 c 2
 108 349 l 2
 108 335 119 324 133 324 c 2
 171 324 l 2
 185 324 196 336 196 350 c 2
 196 392 l 2
 196 439 230 479 274 490 c 1
 274 572 l 2
 274 586 286 597 300 597 c 2
 318 597 l 2
 332 597 344 586 344 572 c 2xee
EndSplineSet
Validated: 1
Layer: 2
EndChar

StartChar: z
Encoding: 122 122 52
GlifName: z
Width: 443
Flags: MW
HStem: -1 70<139 143 143 276 139 383> -1 198<115.5 383 301 383 301 383> 271 70<132 291 145 286> 440 157<64 313.5> 527 70<286 292>
VStem: 39 132<465 499 458 573 458 579.5> 44 70<99 242 242 246> 276 132<69 172> 317 69<366 371 371 497>
LayerCount: 3
Back
Fore
SplineSet
408 172 m 2xab
 408 24 l 2
 408 10 397 -1 383 -1 c 2
 143 -1 l 2
 88 -1 44 44 44 99 c 2
 44 242 l 2
 44 297 90 341 145 341 c 2
 291 341 l 2
 305 341 317 353 317 366 c 2x6b
 317 502 l 2
 317 516 305 527 292 527 c 2
 196 527 l 2
 182 527 171 512 171 499 c 2
 171 465 l 2
 171 451 160 440 146 440 c 2xab
 64 440 l 2
 50 440 39 451 39 465 c 2
 39 573 l 2
 39 586 50 598 64 598 c 2
 286 597 l 2
 341 597 386 552 386 497 c 2
 386 371 l 2
 386 316 341 271 286 271 c 2
 139 271 l 2
 125 271 114 260 114 246 c 2xb480
 114 94 l 2
 114 80 125 69 139 69 c 2
 276 69 l 1
 276 172 l 2
 276 186 287 197 301 197 c 2xac80
 383 197 l 2
 397 197 408 186 408 172 c 2xab
EndSplineSet
Validated: 1
Layer: 2
EndChar

StartChar: T
Encoding: 84 84 54
GlifName: T_
Width: 593
Flags: W
HStem: -1 21G<245 358> 463 134<41.1976 172.802 244.214 307 447.198 578.802> 547 50<173.198 244 376 446.802>
VStem: 41 132<463.198 546.802> 245 131<-0.802399 341.802 463.127 547> 307 69<342 463> 447 132<463.198 546.802>
LayerCount: 3
Back
Fore
SplineSet
579 572 m 2xd6
 579 488 l 2
 579 474 568 463 554 463 c 2
 472 463 l 2xd6
 458 463 447 474 447 488 c 2
 447 522 l 2
 447 536 436 547 422 547 c 2
 376 547 l 1
 376 24 l 2
 376 10 365 -1 351 -1 c 2
 245 -1 l 1
 245 317 l 2xba
 245 331 256 342 270 342 c 2
 307 342 l 1
 307 463 l 1
 269 463 l 2xd6
 256 463 244 474 244 488 c 2
 244 547 l 1
 198 547 l 2xb6
 184 547 173 536 173 522 c 2
 173 488 l 2
 173 474 162 463 148 463 c 2
 66 463 l 2
 52 463 41 474 41 488 c 2
 41 572 l 2
 41 586 52 597 66 597 c 2
 554 597 l 2
 568 597 579 586 579 572 c 2xd6
EndSplineSet
Validated: 1
Layer: 2
EndChar

StartChar: X
Encoding: 88 88 55
GlifName: X_
Width: 489
Flags: W
HStem: -1 21G<61 157 394.5 427> 273 157<182.154 253 297 366.68> 273 69<253 297> 577 20G<124 156 394.5 427>
VStem: 43 132<-0.802399 196.802> 105 70<197 271.795 430.647 596.616> 182 71<342.508 372.541> 297 70<342.379 371.666> 376 70<-0.615692 271.902 430.647 596.616>
LayerCount: 3
Back
Fore
SplineSet
446 244 m 2xd780
 446 24 l 2
 446 10 434 -1 420 -1 c 2
 401 -1 l 2
 388 -1 376 10 376 24 c 2
 376 248 l 2
 376 262 366 273 352 273 c 2
 199 273 l 2
 185 273 175 262 175 248 c 2xd780
 175 24 l 2
 175 10 164 -1 150 -1 c 2
 68 -1 l 2
 54 -1 43 10 43 24 c 2
 43 172 l 2xdb80
 43 186 54 197 68 197 c 2
 105 197 l 1
 105 244 l 2
 105 291 138 333 182 343 c 1
 182 365 l 1
 138 375 105 413 105 460 c 2
 105 572 l 2
 105 586 117 597 131 597 c 2
 149 597 l 2
 163 597 175 586 175 572 c 2
 175 456 l 2
 175 442 185 430 199 430 c 2
 253 430 l 1xd780
 253 342 l 1
 297 342 l 1xb780
 297 430 l 1
 352 430 l 2
 366 430 376 442 376 456 c 2
 376 572 l 2
 376 586 388 597 401 597 c 2
 420 597 l 2
 434 597 446 586 446 572 c 2
 446 460 l 2
 446 413 412 375 367 365 c 1
 367 344 l 1
 412 334 446 291 446 244 c 2xd780
EndSplineSet
Validated: 1
Layer: 2
EndChar

StartChar: five
Encoding: 53 53 56
GlifName: five
Width: 1000
VWidth: 0
Flags: W
HStem: 25 6<158 254 280 654 660 721 755 840> 32 6<727 744> 37 6<266 274> 58 6<342.14 430.86> 242 6<342.14 430.86> 258 6<281.814 649.82 656 747.379> 313 6<184.349 770.461> 551 6<217 738> 591 6<217 738> 630 6<217 738> 670 6<217 738> 675 33<127 160 795 827> 754 6<116 173 782 840>
VStem: 110 6<80 754> 127 33<675 708> 173 6<324.359 749> 274 6<28 37 43 256.186> 336 6<64.1403 241.86> 431 6<65 241.86> 654 6<31 253.788> 721 6<31 32> 744 11<31 32> 750 5<38 254.915> 776 6<324.87 749> 787 17<105 126> 795 32<675 708> 840 6<31 754>
LayerCount: 3
Back
Fore
SplineSet
654 30 m 1x9fcff920
 654 246 l 2
 654 253 648 258 642 258 c 2
 288 258 l 2
 283 258 280 254 280 250 c 2
 280 28 l 1
 654 30 l 1x9fcff920
429 58 m 2
 344 58 l 2
 340 58 336 62 336 66 c 2
 336 240 l 2
 336 244 340 248 344 248 c 2
 429 248 l 2
 433 248 437 244 437 240 c 2
 437 65 l 2
 437 60 433 58 429 58 c 2
429 64 m 2
 431 64 431 65 431 65 c 2
 431 240 l 2
 431 241 430 242 429 242 c 2
 344 242 l 2
 343 242 342 241 342 240 c 2
 342 66 l 2
 342 65 343 64 344 64 c 2
 429 64 l 2
762 319 m 2
 770 319 776 326 776 333 c 2
 776 749 l 1
 179 749 l 1
 179 333 l 2
 179 325 185 319 193 319 c 2
 762 319 l 2
127 675 m 1x9fdff920
 127 708 l 1
 160 708 l 1
 160 675 l 1
 127 675 l 1x9fdff920
795 675 m 1x9fdff960
 795 708 l 1
 827 708 l 1
 827 675 l 1
 795 675 l 1x9fdff960
787 126 m 1x9fcff9a0
 804 126 l 1
 804 105 l 1x9fcff9a0
 811 105 l 1
 795 70 l 1x9fcff960
 780 105 l 1
 787 105 l 1
 787 126 l 1x9fcff9a0
217 676 m 1x9feff920
 738 676 l 1
 738 670 l 1
 217 670 l 1
 217 676 l 1x9feff920
727 25 m 1
 660 25 l 1
 660 22 l 1
 274 22 l 1
 274 37 l 1
 266 37 l 1xbfcffd20
 257 25 l 1
 155 25 l 1
 110 77 l 1
 110 760 l 1
 179 760 l 1
 179 756 l 1
 776 756 l 1
 776 760 l 1
 846 760 l 1
 846 25 l 1
 744 25 l 1
 744 32 l 1
 727 32 l 1xdfcffd20
 727 25 l 1
755 31 m 1
 840 31 l 1
 840 754 l 1
 782 754 l 1
 782 333 l 2
 782 327 777 313 762 313 c 2
 193 313 l 2
 182 313 173 321 173 333 c 2
 173 754 l 1
 116 754 l 1
 116 80 l 1
 158 31 l 1
 254 31 l 1
 263 43 l 1
 274 43 l 1
 274 250 l 2
 274 258 280 264 288 264 c 2
 741 264 l 2
 749 264 756 258 756 250 c 2
 755 31 l 1
721 38 m 1xdfcffb20
 750 38 l 1
 750 250 l 2
 750 254 745 258 741 258 c 2
 656 258 l 1
 658 255 660 251 660 246 c 2
 660 31 l 1
 721 31 l 1
 721 38 l 1xdfcffb20
217 636 m 1
 738 636 l 1
 738 630 l 1
 217 630 l 1
 217 636 l 1
217 597 m 1
 738 597 l 1
 738 591 l 1
 217 591 l 1
 217 597 l 1
217 557 m 1
 738 557 l 1
 738 551 l 1
 217 551 l 1
 217 557 l 1
EndSplineSet
Validated: 1
Layer: 2
EndChar

StartChar: six
Encoding: 54 54 57
Width: 994
VWidth: 0
Flags: W
HStem: 579 20G<640.722 729>
VStem: 678 15<226 239> 785 25<681 701>
LayerCount: 3
Back
Fore
SplineSet
553 139 m 1
 592 307 l 2
 593 312 589 315 584 314 c 2
 295 249 l 2
 291 248 288 244 287 241 c 2
 240 67 l 1
 553 139 l 1
370 118 m 2
 299 102 l 2
 296 101 293 104 294 107 c 2
 330 244 l 2
 331 247 335 251 338 252 c 2
 407 267 l 2
 410 268 413 265 412 262 c 2
 378 125 l 2
 377 121 373 119 370 118 c 2
372 123 m 2
 374 123 373 124 373 124 c 2
 407 261 l 2
 407 262 407 262 406 262 c 2
 337 247 l 2
 336 247 335 246 335 245 c 2
 299 108 l 2
 299 107 300 107 301 107 c 2
 372 123 l 2
698 386 m 2
 705 388 711 394 712 399 c 2
 785 727 l 1
 306 616 l 1
 213 287 l 2
 211 281 216 276 223 278 c 2
 698 386 l 2
251 550 m 1
 258 576 l 1
 285 582 l 1
 278 556 l 1
 251 550 l 1
785 675 m 1
 791 701 l 1
 815 707 l 1
 810 681 l 1
 785 675 l 1
682 239 m 1
 697 242 l 1
 693 226 l 1
 699 227 l 1
 679 197 l 1
 673 221 l 1
 678 223 l 1
 682 239 l 1
312 564 m 1
 745 661 l 1
 744 656 l 1
 311 559 l 1
 312 564 l 1
623 140 m 1
 567 127 l 1
 567 125 l 1
 244 52 l 1
 246 61 l 1
 239 59 l 1
 231 51 l 1
 143 32 l 1
 108 73 l 1
 258 612 l 1
 308 625 l 1
 307 622 l 1
 786 732 l 1
 787 735 l 1
 836 748 l 1
 842 736 l 25
 723 162 l 1
 637 143 l 1
 639 148 l 1
 625 145 l 1
 623 140 l 1
638 159 m 1
 709 175 l 1
 830 742 l 1
 791 732 l 1
 717 400 l 2
 716 395 710 384 697 381 c 2
 221 274 l 2
 212 272 205 276 208 285 c 2
 302 619 l 1
 262 608 l 1
 113 76 l 1
 139 46 l 1
 219 64 l 1
 229 75 l 1
 238 77 l 1
 282 240 l 2
 284 246 289 252 296 254 c 2
 666 338 l 2
 673 340 678 336 676 330 c 2
 638 159 l 1
611 158 m 1
 635 163 l 1
 672 328 l 2
 673 331 669 334 666 333 c 2
 597 318 l 1
 598 316 599 313 598 309 c 2
 558 141 l 1
 609 152 l 1
 611 158 l 1
304 532 m 1
 738 629 l 1
 737 625 l 1
 303 528 l 1
 304 532 l 1
297 502 m 1
 730 599 l 1
 729 594 l 1
 296 497 l 1
 297 502 l 1
287 469 m 1
 723 568 l 1
 722 563 l 1
 286 465 l 1
 287 469 l 1
EndSplineSet
Validated: 1
Layer: 2
SplineSet
373 125 m 1
 559 139 l 5
 2532 8662 l 1
 373 125 l 1
EndSplineSet
EndChar

StartChar: seven
Encoding: 55 55 58
Width: 1000
VWidth: 0
Flags: W
HStem: 25 6<158 254 280 654 660 721 755 840> 32 6<727 744> 37 6<266 274> 58 6<342.14 430.86> 242 6<342.14 430.86> 258 6<281.814 649.82 656 747.379> 313 6<184.349 770.461> 551 6<217 738> 591 6<217 738> 630 6<217 738> 670 6<217 738> 675 33<127 160 795 827> 754 6<116 173 782 840>
VStem: 110 6<80 754> 127 33<675 708> 173 6<324.359 749> 274 6<28 37 43 256.186> 336 6<64.1403 241.86> 431 6<65 241.86> 654 6<31 253.788> 721 6<31 32> 744 11<31 32> 750 5<38 254.915> 776 6<324.87 749> 787 17<105 126> 795 32<675 708> 840 6<31 754>
LayerCount: 3
Back
Fore
SplineSet
654 30 m 1x9fcff920
 654 246 l 2
 654 253 648 258 642 258 c 2
 288 258 l 2
 283 258 280 254 280 250 c 2
 280 28 l 1
 654 30 l 1x9fcff920
429 58 m 2
 344 58 l 2
 340 58 336 62 336 66 c 2
 336 240 l 2
 336 244 340 248 344 248 c 2
 429 248 l 2
 433 248 437 244 437 240 c 2
 437 65 l 2
 437 60 433 58 429 58 c 2
429 64 m 2
 431 64 431 65 431 65 c 2
 431 240 l 2
 431 241 430 242 429 242 c 2
 344 242 l 2
 343 242 342 241 342 240 c 2
 342 66 l 2
 342 65 343 64 344 64 c 2
 429 64 l 2
762 319 m 2
 770 319 776 326 776 333 c 2
 776 749 l 5
 179 749 l 5
 179 333 l 2
 179 325 185 319 193 319 c 2
 762 319 l 2
127 675 m 5x9fdff920
 127 708 l 5
 160 708 l 5
 160 675 l 5
 127 675 l 5x9fdff920
795 675 m 5x9fdff960
 795 708 l 5
 827 708 l 5
 827 675 l 5
 795 675 l 5x9fdff960
787 126 m 1x9fcff9a0
 804 126 l 1
 804 105 l 1x9fcff9a0
 811 105 l 1
 795 70 l 1x9fcff960
 780 105 l 1
 787 105 l 1
 787 126 l 1x9fcff9a0
217 676 m 5x9feff920
 738 676 l 5
 738 670 l 5
 217 670 l 5
 217 676 l 5x9feff920
727 25 m 1
 660 25 l 1
 660 22 l 1
 274 22 l 1
 274 37 l 1
 266 37 l 1xbfcffd20
 257 25 l 1
 155 25 l 1
 110 77 l 1
 110 760 l 5
 179 760 l 5
 179 756 l 5
 776 756 l 5
 776 760 l 5
 846 760 l 5
 846 25 l 1
 744 25 l 1
 744 32 l 1
 727 32 l 1xdfcffd20
 727 25 l 1
755 31 m 1
 840 31 l 1
 840 754 l 5
 782 754 l 5
 782 333 l 2
 782 327 777 313 762 313 c 2
 193 313 l 2
 182 313 173 321 173 333 c 2
 173 754 l 5
 116 754 l 5
 116 80 l 1
 158 31 l 1
 254 31 l 1
 263 43 l 1
 274 43 l 1
 274 250 l 2
 274 258 280 264 288 264 c 2
 741 264 l 2
 749 264 756 258 756 250 c 2
 755 31 l 1
721 38 m 1xdfcffb20
 750 38 l 1
 750 250 l 2
 750 254 745 258 741 258 c 2
 656 258 l 1
 658 255 660 251 660 246 c 2
 660 31 l 1
 721 31 l 1
 721 38 l 1xdfcffb20
217 636 m 5
 738 636 l 5
 738 630 l 5
 217 630 l 5
 217 636 l 5
217 597 m 5
 738 597 l 5
 738 591 l 5
 217 591 l 5
 217 597 l 5
217 557 m 1
 738 557 l 1
 738 551 l 1
 217 551 l 1
 217 557 l 1
EndSplineSet
Validated: 1
Layer: 2
EndChar
